<?xml version="1.0" encoding="UTF-8" standalone="no"?>

<svg
   xmlns:dc="http://purl.org/dc/elements/1.1/"
   xmlns:cc="http://creativecommons.org/ns#"
   xmlns:rdf="http://www.w3.org/1999/02/22-rdf-syntax-ns#"
   xmlns:svg="http://www.w3.org/2000/svg"
   xmlns="http://www.w3.org/2000/svg"
   
   width="80%"
   version="1.1"
   viewBox="0 0 1559.8958 851.30261"
   id="peta_jawatimur"
   docname="kabupaten_kota_jawa_timur_simplified.svg">
  
  <g
     id="jawa timur"
     transform="translate(-19.9983,-107.1704)">
    <g id="kabupaten">
      
      <path class="region" data-region="Malang"  data-info="Malang"
         id="malang"
         d="m 770.13,819.14 c -4.6466,-2.417 -7.683,-3.168 -10.517,-2.6012 -2.7878,0.55757 -4.4437,0.16901 -5.5132,-1.2937 -1.3932,-1.9053 -8.5086,-5.286 -22.77,-10.819 -7.3724,-2.8601 -23.115,-5.4688 -46.336,-7.6781 -15.316,-1.4573 -20.662,-2.4853 -24.157,-4.6454 -2.4686,-1.5257 -5.6176,-2.7773 -6.9977,-2.7814 -6.9274,-0.0205 -12.661,-2.886 -14.816,-7.4049 -1.2032,-2.5232 -2.9766,-4.5876 -3.9407,-4.5876 -2.7834,0 -2.1104,-1.6165 3.4994,-8.4051 5.6908,-6.8867 9.4142,-17.253 9.4142,-26.21 0,-3.0457 0.62655,-8.0534 1.3924,-11.128 1.159,-4.6534 0.93194,-6.9207 -1.3543,-13.527 -1.5107,-4.365 -4.0246,-9.2967 -5.5864,-10.959 l -2.8398,-3.0228 3.8608,-1.4741 c 2.1234,-0.81078 7.8926,-1.8146 12.82,-2.2308 11.968,-1.0107 16.116,-3.7107 19.371,-12.609 2.1041,-5.7511 2.5401,-10.015 2.2938,-22.434 -0.2825,-14.242 -0.0909,-15.571 2.6904,-18.667 2.0954,-2.3325 3.4806,-6.4545 4.6132,-13.728 1.9304,-12.397 0.86814,-20.254 -3.4308,-25.374 -1.7403,-2.0729 -3.1642,-4.5299 -3.1642,-5.46 0,-0.9301 -1.1837,-2.7623 -2.6305,-4.0716 -3.3655,-3.0457 -9.4671,-1.9763 -14.924,2.6157 -2.1757,1.8307 -7.366,4.3225 -11.534,5.5372 -7.1132,2.0731 -7.946,2.0663 -13.578,-0.11133 -3.3,-1.276 -8.9392,-3.1539 -12.532,-4.1732 -3.5924,-1.0193 -6.7866,-2.1083 -7.0983,-2.42 -0.31168,-0.31168 0.3011,-2.2724 1.3618,-4.3573 1.0606,-2.0848 2.3242,-7.0906 2.8079,-11.124 0.7744,-6.4573 0.31685,-8.7247 -3.8302,-18.981 -3.19,-7.8893 -4.7096,-13.779 -4.7096,-18.255 0,-3.634 -0.6,-6.9781 -1.3333,-7.4313 -3.1302,-1.9346 -0.82722,-3.0368 6.3333,-3.0311 4.2167,0.003 9.9718,-0.43537 12.789,-0.97492 4.1549,-0.79569 5.8591,-0.43639 9.0221,1.9021 3.1075,2.2974 4.9108,2.6954 8.8775,1.959 2.7378,-0.50824 6.2519,-1.7528 7.8091,-2.7657 1.9312,-1.2561 4.5979,-1.5591 8.3886,-0.95292 4.2922,0.68634 5.9243,0.4005 7.1688,-1.2555 1.3718,-1.8254 2.4765,-1.9213 7.43,-0.64518 4.6978,1.2103 6.1746,2.351 7.6667,5.9221 2.6094,6.2453 2.4576,28.058 -0.24032,34.515 -1.2878,3.0822 -2.1823,9.6617 -2.3333,17.163 l -0.24492,12.165 5.3333,0.4433 c 10.331,0.85866 21.82,-1.1305 25.781,-4.4636 2.3923,-2.013 5.8433,-3.2867 9.6394,-3.5576 5.7696,-0.4118 5.9229,-0.54185 6.3234,-5.3656 0.46175,-5.5613 -1.568,-10.39 -4.3675,-10.39 -2.5202,0 -3.8752,-4.7143 -3.5027,-12.186 0.16966,-3.4024 -0.33586,-8.579 -1.1234,-11.504 -1.3615,-5.0563 -1.1642,-5.7183 4.0193,-13.481 2.9981,-4.4897 5.9815,-8.1631 6.6297,-8.1631 0.6482,0 3.195,2.0165 5.6596,4.481 6.7823,6.7823 20.668,11.687 49.718,17.563 2.5999,0.52582 18.011,19.713 21.919,27.29 3.2453,6.2918 11.117,14.857 15.876,17.274 5.8612,2.9767 23.718,8.0596 28.315,8.0596 1.8605,0 5.2722,0.6587 7.5816,1.4638 3.3848,1.1799 4.199,2.2004 4.199,5.2628 0,2.0894 1.5,6.6201 3.3333,10.068 4.2164,7.9299 4.178,8.9595 -0.55656,14.95 -2.1395,2.707 -4.6193,7.4214 -5.5108,10.476 -1.5475,5.3032 -1.4017,5.9465 3.2232,14.217 5.3216,9.516 5.8138,13.008 2.8945,20.535 -2.6981,6.9568 -6.0503,22.281 -6.0503,27.658 0,2.4558 1.157,8.1826 2.5711,12.726 2.5412,8.165 2.5411,8.3187 -0.0133,13.219 -4.118,7.9005 -1.6587,14.381 8.4846,22.356 1.1185,0.8795 2.4448,4.0328 2.9474,7.0074 0.55344,3.2758 2.0454,6.2009 3.7837,7.4185 l 2.87,2.0102 -3.0814,5.6491 c -1.6948,3.107 -4.917,7.1089 -7.1604,8.893 l -4.0791,3.2439 -2.5577,-3.5112 c -3.0115,-4.1342 -6.4315,-3.499 -6.4315,1.1946 0,8.3001 -13.262,6.1342 -18.161,-2.966 -1.378,-2.5598 -3.8598,-4.9944 -5.5152,-5.4101 -4.1404,-1.0398 -9.6569,2.8099 -9.6569,6.739 0,3.2422 -1.6162,5.106 -5.6868,6.5581 -1.605,0.57252 -3.4773,-0.42179 -5.8871,-3.1264 -4.9012,-5.5008 -7.9982,-5.1698 -9.6739,1.0341 -1.7606,6.5181 -5.1751,8.464 -16.652,9.49 l -9.4339,0.84335 0.40864,7.6667 c 0.47579,8.9265 -0.0107,9.1365 -9.6079,4.1444 z"
         />
        

      <path class="region" data-region="Blitar" data-info="Blitar"
          
         id="blitar"
         d="m 582,775.45 c -2.9333,-0.98909 -9.488,-3.7228 -14.566,-6.0748 -7.1129,-3.2946 -10.327,-4.0966 -14,-3.4928 -6.3215,1.039 -6.0509,1.0496 -16.767,-0.65305 -5.1333,-0.81559 -13.233,-1.1732 -18,-0.79458 -4.7667,0.37858 -11.457,0.0993 -14.868,-0.62057 -5.9763,-1.2614 -6.2317,-1.5114 -7.0457,-6.8934 -0.46455,-3.0715 -1.0428,-8.2845 -1.2851,-11.585 -0.2423,-3.3005 -1.4217,-10.703 -2.6209,-16.451 -2.8463,-13.642 -2.7861,-14.625 1.1853,-19.345 3.0239,-3.5937 3.8017,-3.8749 7.6579,-2.769 8.0667,2.3135 12.402,1.5 18.31,-3.4357 3.0721,-2.5667 6.3948,-4.6667 7.3839,-4.6667 2.624,0 5.9494,-5.3568 5.9494,-9.5836 0,-2.2091 -1.6811,-5.5716 -4.246,-8.4929 -4.1482,-4.7246 -4.4099,-4.8155 -11.361,-3.947 -8.5234,1.0649 -20.675,-2.4834 -30.271,-8.8393 -6.0127,-3.9826 -7.0179,-5.766 -7.7566,-13.761 -0.26074,-2.8218 -1.7043,-4.8471 -5.0323,-7.0601 -4.2414,-2.8203 -7.7855,-8.0664 -7.9399,-11.752 -0.0634,-1.5146 14.012,-4.5638 21.067,-4.5638 4.8307,0 21.613,-3.0336 36.873,-6.6653 5.8667,-1.3962 15.467,-2.881 21.333,-3.2996 14.736,-1.0515 24.243,-3.3957 41.333,-10.193 18.243,-7.2555 28.133,-7.7392 41.897,-2.0491 4.7098,1.9471 10.451,3.5402 12.758,3.5402 6.3968,0 17.442,-3.6928 21.66,-7.2413 5.6657,-4.7674 8.5812,-4.7922 10.805,-0.092 1.0409,2.2 2.9343,5.2 4.2076,6.6667 3.4095,3.9273 4.2053,10.56 2.4602,20.506 -0.99871,5.6923 -2.6261,10.011 -4.5824,12.16 -2.8248,3.1038 -3.0295,4.4811 -2.9718,20 0.0919,24.689 -3.7976,31.947 -17.167,32.033 -11.37,0.0732 -21.733,4.2929 -21.733,8.8495 0,0.9912 1.4827,3.0914 3.295,4.6671 5.8073,5.0494 7.6357,13.49 6.2082,28.66 -1.458,15.495 -3.4378,20.895 -11.093,30.258 -3.0879,3.7764 -5.7215,7.0443 -5.8524,7.262 -0.13093,0.21772 -4.1,-0.31575 -8.8202,-1.1855 -6.494,-1.1966 -10.507,-1.2124 -16.493,-0.0649 -4.351,0.83402 -9.4108,1.7977 -11.244,2.1416 -1.8333,0.34384 -5.7333,-0.18409 -8.6667,-1.1732 z"
         
          />
      <path class="region" data-region="Kediri"  data-info="Kediri" 
          
         id="kediri"
         d="m 462.01,621.82 c -1.2456,-4.3002 -2.8816,-8.5686 -3.6354,-9.4853 -0.7538,-0.91666 -4.2689,-1.6667 -7.8112,-1.6667 -9.177,0 -12.475,-1.9843 -19.866,-11.954 -7.6543,-10.325 -21.634,-24.046 -24.499,-24.046 -2.441,0 -10.201,-6.3496 -10.201,-8.3469 0,-0.79374 -0.92127,-2.4612 -2.0473,-3.7054 -1.873,-2.0697 -1.73,-2.3257 1.6808,-3.0078 2.0504,-0.41009 8.322,-4.8393 13.937,-9.8428 5.6148,-5.0035 17.522,-15.397 26.46,-23.097 8.938,-7.7 18.094,-16.4 20.346,-19.333 8.571,-11.163 10.425,-12.686 13.485,-11.076 3.9975,2.1028 4.7619,3.6906 4.785,9.9396 0.0168,4.5376 1.0372,6.7463 5.6871,12.309 6.9682,8.3367 9.8225,8.674 12.643,1.4941 2.0842,-5.3059 2.132,-5.3333 9.301,-5.3333 h 7.206 l 2.7902,-6.3076 c 1.5346,-3.4692 3.0749,-8.8342 3.423,-11.922 0.40554,-3.598 1.771,-6.6839 3.8015,-8.5915 1.7428,-1.6373 3.1687,-4.323 3.1687,-5.9682 0,-1.6452 1.5,-5.9778 3.3333,-9.6279 1.8333,-3.6501 3.3333,-7.4794 3.3333,-8.5095 0,-1.0302 0.70816,-2.5812 1.5737,-3.4467 1.2094,-1.2094 3.3413,0.0408 9.209,5.4 4.1994,3.8355 9.4289,8.3177 11.621,9.9604 2.1923,1.6427 6.2427,6.4427 9.0009,10.667 10.41,15.942 17.951,25.244 23.966,29.564 5.8198,4.1794 6.5338,4.3672 11.243,2.9562 8.0642,-2.4161 15.531,-1.8157 22.719,1.8267 3.6179,1.8333 8.2934,3.3333 10.39,3.3333 2.4068,0 5.0034,1.2917 7.0443,3.5043 l 3.2324,3.5043 -6.3262,-0.91823 c -4.6682,-0.67757 -7.079,-0.39093 -9.1986,1.0937 -2.1688,1.5191 -4.9467,1.8182 -11.34,1.2211 -8.2726,-0.7725 -8.4671,-0.71704 -8.4257,2.4021 0.0233,1.756 0.92333,4.3575 2,5.781 1.0895,1.4404 1.9576,5.4246 1.9576,8.9844 0,4.2705 1.5468,10.133 4.6544,17.64 5.1391,12.415 5.1816,15.551 0.35816,26.454 -2.365,5.3463 -3.3745,6.3333 -6.4771,6.3333 -2.0215,0 -8.6689,1.8398 -14.772,4.0885 -6.1032,2.2486 -15.06,5.5391 -19.903,7.3122 -4.843,1.7731 -14.744,3.8588 -22,4.635 -14.646,1.5666 -20.636,2.5602 -39.193,6.5011 -6.9667,1.4794 -18.067,3.2968 -24.667,4.0387 -6.6,0.74186 -14.188,1.7342 -16.861,2.2053 l -4.8612,0.85648 z"
         
          />
      <path class="region" data-region="Banyuwangi" data-info="Banyuwangi" 
          
         id="banyuwangi"
         d="m 1542,957.71 c -1.4667,-0.3563 -4.4667,-1.9525 -6.6667,-3.5471 -2.2,-1.5946 -6.1,-3.8812 -8.6666,-5.0815 -5.3818,-2.5166 -26.616,-5.1125 -41.667,-5.0938 -5.6833,0.007 -10.333,-0.35792 -10.333,-0.8111 0,-0.4532 1.7748,-2.8453 3.9438,-5.3158 13.376,-15.234 3.3894,-36.322 -21.876,-46.193 -3.7041,-1.4472 -9.5461,-3.7644 -12.982,-5.1493 -3.7337,-1.505 -9.5004,-2.518 -14.333,-2.518 -7.668,0 -8.0862,0.16705 -8.0862,3.231 0,3.6434 -5.5338,10.896 -9.2018,12.061 -1.33,0.42212 -7.4538,-0.99829 -13.608,-3.1564 -12.444,-4.3637 -24.142,-6.8018 -32.634,-6.8018 -4.24,0 -7.3668,1.1748 -12.726,4.7815 l -7.1052,4.7815 -3.6955,-4.1358 c -2.2535,-2.5221 -3.6953,-5.6577 -3.6953,-8.0361 0,-4.5704 -0.2871,-4.8002 -7.485,-5.9904 -4.1849,-0.692 -6.0013,-0.3906 -7.6636,1.2717 -2.7287,2.7287 -10.026,4.8912 -13.154,3.8982 -3.1458,-0.99842 -2.9986,-2.7602 0.3028,-3.6236 2.0281,-0.53036 2.6666,-1.8187 2.6666,-5.3801 0,-3.8785 -0.7712,-5.1594 -4.4907,-7.4582 -5.889,-3.6396 -13.753,-3.6377 -17.63,0.004 l -2.9588,2.7796 -5.1272,-2.6534 c -2.8199,-1.4594 -8.1036,-3.3417 -11.742,-4.1831 -9.3065,-2.1522 -10.854,-3.6973 -7.3936,-7.381 3.7968,-4.0415 4.3515,-8.4115 1.59,-12.527 -3.2793,-4.8869 -6.9152,-13.165 -6.9152,-15.743 0,-2.9221 7.6376,-14.666 11.128,-17.111 4.1553,-2.9105 11.142,-2.5272 12.872,0.70617 0.981,1.833 2.7917,2.6667 5.792,2.6667 5.7987,0 8.901,-2.4819 10.035,-8.0288 0.7432,-3.6336 1.7894,-4.8106 5.1271,-5.7678 3.3099,-0.94926 4.7902,-2.5897 7.0254,-7.7856 1.5576,-3.6206 3.1778,-9.503 3.6005,-13.072 l 0.7685,-6.489 -7.2619,-4.6454 c -5.8363,-3.7334 -7.5805,-5.7088 -8.8849,-10.062 -1.4206,-4.7415 -1.3015,-6.0446 0.9549,-10.45 1.4178,-2.768 4.4903,-7.4316 6.8278,-10.364 4.3526,-5.4597 4.5862,-7.8437 1.8465,-18.844 -0.5691,-2.2848 0.4131,-3.4615 5.0085,-6 3.144,-1.7368 8.5661,-6.6968 12.049,-11.022 8.6366,-10.726 23.51,-20.381 33.944,-22.036 4.3084,-0.68325 11.334,-2.298 15.613,-3.5882 6.1798,-1.8637 8.3001,-2.0204 10.315,-0.76197 3.5694,2.2292 10.679,1.968 16.743,-0.61527 2.8395,-1.2096 6.9486,-2.5813 9.1311,-3.0482 4.0611,-0.86876 8.6773,-6.2746 14.18,-16.606 2.1102,-3.9617 2.5589,-6.4807 1.8998,-10.667 -2.463,-15.646 -2.3421,-22.023 0.5048,-26.63 1.5291,-2.4741 2.7802,-6.1564 2.7802,-8.183 0,-2.6056 1.8062,-5.4881 6.1681,-9.8426 3.3924,-3.3868 7.7533,-9.1518 9.6909,-12.811 1.9376,-3.6592 4.6344,-6.8672 5.993,-7.1288 1.5633,-0.30106 4.9804,1.9565 9.309,6.1502 4.9146,4.7614 9.4732,7.6115 16.201,10.129 5.1489,1.9266 10.387,3.5029 11.64,3.5029 1.253,0 4.5977,0.92815 7.4328,2.0626 l 5.1548,2.0626 0.9088,25.311 c 0.9073,25.274 0.9035,25.324 -2.5897,33.604 -6.271,14.864 -7.1235,17.556 -7.1828,22.679 -0.032,2.7792 -1.3622,7.5792 -2.9555,10.667 -3.3428,6.4778 -5.1931,26.577 -2.5944,28.183 2.4929,1.5407 1.7101,4.0942 -3.2441,10.583 -4.3295,5.6701 -4.9542,7.6587 -7.2851,23.192 -3.3012,21.998 -4.962,30.51 -6.5219,33.424 -0.6954,1.2995 -1.666,5.9334 -2.1565,10.297 -0.9345,8.3122 1.3865,20.502 5.3515,28.104 2.563,4.9145 2.5404,9.5789 -0.077,15.843 -2.4885,5.9558 -1.5776,7.2612 5.7527,8.2444 l 5.3177,0.71325 2.1771,-6.3893 c 1.1973,-3.5141 2.1771,-9.8824 2.1771,-14.152 0,-8.6957 2.1153,-10.44 3.3497,-2.7625 0.4421,2.75 1.1815,6.5 1.6428,8.3333 0.4613,1.8333 0.8889,8.1333 0.95,14 0.1253,12.084 2.9804,20.742 10.699,32.45 2.5804,3.914 4.6916,8.264 4.6916,9.6667 0,4.4009 6.302,3.2192 10.974,-2.0576 l 4.0796,-4.608 3.9479,2.9413 c 2.1713,1.6177 5.5343,4.4697 7.4733,6.3378 4.6287,4.4594 10.564,6.7805 19.905,7.7845 7.4382,0.79944 7.7406,0.9943 12.65,8.1524 2.7665,4.0333 6.1928,9.5127 7.6137,12.176 l 2.5838,4.843 -3.3443,8.6533 c -3.3353,8.6304 -3.3691,8.6643 -12.786,12.824 -8.8701,3.9178 -15.086,4.8355 -21.764,3.2132 z"
          />
      <path class="region" data-region="Jember"  data-info="Jember" 
          
         id="jember"
         d="m 1245.9,857 c 0.384,-2.3833 0.2612,-7.92 -0.2729,-12.304 -0.8721,-7.1586 -1.353,-8.1045 -4.7212,-9.2868 -3.0506,-1.0708 -4.8769,-0.71865 -9.7901,1.8878 -3.3219,1.7623 -7.5555,5.1913 -9.4081,7.6201 -2.9095,3.8146 -4.1637,4.4159 -9.2099,4.4159 -6.4804,0 -6.4909,-0.0153 -4.258,-6.1904 1.3668,-3.7799 1.2472,-4.7515 -0.8733,-7.0947 -3.1297,-3.4582 -8.2649,-3.5526 -9.338,-0.1715 -0.9307,2.9324 -4.2487,4.6082 -5.4084,2.7316 -0.4335,-0.70131 -4.0527,-1.2751 -8.0427,-1.2751 -6.8027,0 -7.2547,-0.20279 -7.2547,-3.2546 0,-1.79 -0.6,-3.6255 -1.3333,-4.0787 -0.7333,-0.45323 -1.3333,-2.2825 -1.3333,-4.0651 0,-2.4469 -1.7853,-4.4264 -7.2859,-8.0786 -6.1405,-4.077 -8.0158,-4.7006 -11.928,-3.9667 -3.8991,0.73148 -4.8906,0.4066 -6.1945,-2.0298 -1.4698,-2.7464 -2.2081,-2.8616 -13.878,-2.1653 l -12.326,0.73534 -8.2233,-5.1995 c -7.1282,-4.507 -8.1178,-5.62 -7.431,-8.3566 0.5027,-2.0029 0.011,-3.9391 -1.3469,-5.2963 -3.6351,-3.6351 -10.032,-3.8802 -21.387,-0.81939 -15.627,4.2125 -15.168,4.3165 -20.517,-4.6431 -3.0815,-5.1613 -8.5609,-11.149 -15.862,-17.333 -10.51,-8.9024 -11.098,-9.6793 -10.19,-13.448 0.5302,-2.2 1.1495,-9.3015 1.3761,-15.781 l 0.4122,-11.781 9.2774,-5.9356 c 8.9289,-5.7127 12.17,-10.02 12.17,-16.175 0,-1.068 1.5,-3.7245 3.3334,-5.9033 3.4179,-4.062 4.2058,-7.584 2.1974,-9.8235 -0.6247,-0.69666 -1.8804,-6.4734 -2.7904,-12.837 -1.2983,-9.0785 -2.6025,-13.042 -6.0558,-18.402 -3.9736,-6.1677 -4.2531,-7.2317 -2.8762,-10.952 0.879,-2.375 4.494,-6.3201 8.5342,-9.3138 6.7268,-4.9842 7.2283,-5.1345 12.443,-3.7302 2.9888,0.80479 6.7867,1.286 8.4398,1.0694 1.6532,-0.21662 4.0465,0.64692 5.3186,1.919 3.6447,3.6447 12.153,3.0647 15.751,-1.0737 2.7328,-3.143 3.669,-3.3604 13.018,-3.0229 9.2455,0.33373 10.893,-0.0349 20.047,-4.4866 13.173,-6.4065 15.448,-6.9784 20.096,-5.0532 3.2228,1.3349 4.9368,1.2502 9.5684,-0.47295 3.1033,-1.1545 7.8704,-2.4945 10.594,-2.9778 4.9433,-0.87716 4.9571,-0.86651 8.4632,6.5385 4.0926,8.6437 4.9742,9.5094 12.328,12.104 3.0316,1.0696 8.8805,4.488 12.998,7.5965 7.2861,5.5011 7.6339,5.6123 13.04,4.169 4.7078,-1.257 5.9295,-1.143 8.02,0.74814 2.7067,2.4487 9.7371,2.6606 22.2,0.66922 9.1213,-1.4574 10.667,-2.4034 10.667,-6.5293 0,-2.8022 0.4691,-3.1623 3.2203,-2.4718 1.8561,0.46585 5.204,-0.13307 7.9029,-1.4138 l 4.6825,-2.222 15.764,8.2926 c 23.332,12.274 27.885,15.421 31.68,21.896 1.8667,3.1853 5.4994,7.0926 8.0726,8.6829 2.573,1.5903 4.6697,3.2925 4.6592,3.7827 -0.013,0.49019 -2.9923,2.5309 -6.626,4.5348 -4.1693,2.2993 -9.1434,6.8713 -13.482,12.392 -3.7812,4.8115 -9.0896,9.878 -11.796,11.259 -7.1913,3.6688 -8.8103,6.0347 -6.9392,10.141 2.8727,6.3048 1.7943,11.141 -4.6438,20.825 -5.7774,8.6905 -6.1236,9.7038 -5.4007,15.808 1.0199,8.6114 2.5911,11.255 9.2818,15.618 3.0763,2.006 6.0989,4.0125 6.7169,4.459 1.3349,0.96452 -2.2423,13.694 -5.0544,17.985 -1.0843,1.6549 -3.2749,3.2025 -4.8681,3.4392 -3.1532,0.4685 -4.6026,2.4838 -5.7594,8.0082 -1.0777,5.1466 -5.1078,5.9361 -9.2348,1.8091 -3.7237,-3.7237 -5.7721,-4.0394 -13.065,-2.0138 -8.4327,2.3422 -19.559,17.998 -17.793,25.036 0.474,1.8887 2.6445,7.0269 4.8233,11.418 3.7885,7.6357 4.2038,11.506 1.2349,11.506 -0.7563,0 -1.3751,-0.9 -1.3751,-2 0,-3.6981 -3.7969,-2.0427 -7.5802,3.3049 -4.5685,6.4572 -6.0995,6.7615 -5.1759,1.0285 z"
          />
      <path class="region"
          
         d="m 1024,839.08 c -6.1026,-3.1612 -6.7111,-7.2566 -1.7557,-11.817 2.0656,-1.9009 4.9557,-4.5528 6.4224,-5.8932 2.1151,-1.933 3.356,-2.1607 6,-1.1012 1.8333,0.73473 8.1333,1.5483 14,1.8079 14.995,0.6636 19.47,1.7331 23.667,5.6568 4.5958,4.2964 4.5208,5.4692 -0.6098,9.5315 -3.8772,3.07 -5.3151,3.2986 -23.593,3.7507 -16.804,0.41566 -20.102,0.1511 -24.131,-1.9359 z"
         id="p_jember_1"
          />
      <path class="region" data-region="Trenggalek" data-info="Trenggalek" 
          
         id="trenggalek"
         d="m 343.26,785.34 c -1.4637,-1.4637 -5.8748,-3.7137 -9.8025,-5 -6.5419,-2.1424 -7.3266,-2.8424 -9.35,-8.3388 -2.1885,-5.945 -2.2633,-5.998 -8.1605,-5.7834 -3.2734,0.11907 -7.7638,0.617 -9.9787,1.1064 -3.7071,0.81909 -4.164,0.5109 -5.7515,-3.8792 -2.1386,-5.914 -6.584,-7.3853 -13.029,-4.3119 -3.3747,1.6093 -4.526,3.0116 -4.526,5.5132 0,2.3286 -0.71383,3.337 -2.3333,3.2964 -3.6428,-0.0913 -12.263,-3.4644 -14.86,-5.8147 -2.9481,-2.668 -5.9917,-2.7154 -8.1401,-0.12678 -0.91292,1.1 -2.171,2 -2.7957,2 -2.1932,0 -5.2043,-7.9274 -5.2043,-13.701 0,-7.886 -4.4413,-12.342 -11.207,-11.244 -4.4844,0.72772 -4.7237,0.54947 -6.8948,-5.1356 -1.781,-4.6634 -1.9126,-6.295 -0.63245,-7.8375 0.8892,-1.0714 1.4284,-4.1335 1.1983,-6.8046 -0.37438,-4.3454 0.0212,-5.0414 3.7584,-6.6128 2.2972,-0.96591 4.7952,-2.8605 5.551,-4.2101 1.0889,-1.9445 2.9851,-2.4539 9.1337,-2.4539 9.4485,0 11.093,-0.94469 11.093,-6.373 0,-2.3186 0.72795,-7.3466 1.6176,-11.173 1.7183,-7.3906 3.0549,-8.3995 11.176,-8.4353 4.8028,-0.0212 7.5798,-2.743 9.7734,-9.5796 2.4571,-7.6576 8.4771,-14.936 14.66,-17.724 3.9168,-1.7662 6.4298,-4.0948 8.2325,-7.6285 1.4271,-2.7974 3.321,-5.0862 4.2086,-5.0862 0.88759,0 4.7659,-1.3065 8.6185,-2.9033 6.246,-2.5888 7.3825,-2.7011 10.493,-1.0363 3.0834,1.6502 3.6789,1.6065 5.1285,-0.3759 0.90202,-1.2336 2.4545,-5.7172 3.45,-9.9637 1.4022,-5.9817 3.3672,-9.5229 8.7234,-15.721 3.8024,-4.4 8.1415,-10.432 9.6424,-13.404 2.5737,-5.0966 7.3254,-8.5961 11.672,-8.5961 1.3664,0 1.9373,1.5484 1.9373,5.2546 0,2.89 0.66869,5.6679 1.486,6.173 0.98263,0.60728 1.1937,3.5021 0.62303,8.5459 -0.69743,6.1645 -0.44432,7.9749 1.3196,9.4388 3.468,2.8782 4.9612,8.0008 4.7245,16.208 l -0.21979,7.62 9.0333,8.5669 c 8.2543,7.8281 12.969,11.821 24.356,20.628 7.3836,5.7102 4.1387,10.899 -6.8162,10.899 -3.9441,0 -6.5856,0.86171 -8.6838,2.8328 -3.1732,2.9811 -10.99,5.0118 -19.666,5.1091 -6.8662,0.0771 -13.381,6.6674 -14.691,14.862 -0.81593,5.1026 -0.54538,5.9656 2.6753,8.5337 3.4767,2.7722 3.5552,3.1394 2.6453,12.373 -1.0174,10.325 0.1148,14.216 4.5452,15.622 1.496,0.4748 2.6681,2.0174 2.6681,3.5113 0,3.557 2.3702,7.8124 4.3802,7.8644 2.785,0.072 6.5957,6.5445 5.7759,9.8106 -0.86563,3.4489 -6.6582,10.148 -8.7749,10.148 -0.89212,0 -1.1105,-1.8905 -0.59246,-5.1299 0.71708,-4.4843 0.27451,-5.7515 -3.5168,-10.07 -3.5207,-4.0099 -5.1153,-4.8639 -8.4712,-4.5368 -3.9138,0.38148 -4.1696,0.75815 -4.8007,7.0696 -0.55684,5.5684 -1.1423,6.7344 -3.5539,7.078 -6.2844,0.89521 -5.2341,9.1732 1.6331,12.871 6.709,3.6131 6.0576,6.82 -1.5986,7.8694 -8.6845,1.1904 -8.9139,1.1553 -11.883,-1.8134 z"
          />
      <path class="region" data-region="Lumajang"  data-info="Lumajang" 
          
         id="lumajang"
         d="m 881.3,769.91 c -0.71518,-1.8811 -1.3003,-4.446 -1.3003,-5.6998 0,-1.2538 -2.7,-4.8204 -6,-7.9259 -6.4631,-6.082 -7.6342,-10.681 -3.9576,-15.542 2.6133,-3.4551 2.4777,-5.911 -0.90455,-16.38 -2.6219,-8.1156 -2.7203,-9.5941 -1.1731,-17.612 0.929,-4.814 2.817,-12.032 4.1955,-16.04 3.7715,-10.965 3.3168,-18.246 -1.6265,-26.041 -5.0552,-7.9712 -4.6589,-13.249 1.5771,-21.009 3.5764,-4.4503 4.1026,-6.0218 3.5061,-10.469 -0.38605,-2.8782 -1.9578,-7.6426 -3.4928,-10.588 -1.535,-2.9449 -2.7909,-6.2359 -2.7909,-7.3133 0,-3.4765 2.0857,-2.0842 3.7428,2.4986 1.5771,4.3614 6.0723,7.5436 10.653,7.5414 1.2488,-5.7e-4 6.1706,-1.8484 10.937,-4.1064 7.7658,-3.6786 9.179,-3.9524 13.595,-2.6335 4.9607,1.4814 7.8228,4.3276 12.01,11.943 3.1868,5.7965 8.3974,5.5897 15.84,-0.62866 4.1619,-3.4772 6.4417,-4.5216 8.4595,-3.8753 6.6392,2.1263 10.287,2.2116 12.481,0.292 1.2544,-1.0971 5.1478,-3.2425 8.652,-4.7675 8.424,-3.6661 17.468,-11.216 23.956,-19.999 8.6208,-11.67 17.34805,-13.531 25.71405,-5.485 2.6737,2.5711 6.3384,4.3225 10.825,5.1734 3.7306,0.70749 9.5156,2.614 12.856,4.2366 5.1952,2.524 6.464,3.973 8.7814,10.029 1.4898,3.8931 3.4424,10.63 4.3391,14.972 1.409,6.8218 1.3267,8.6886 -0.6063,13.75 -2.9868,7.8208 -2.933,8.2134 2.3157,16.9 3.5248,5.8336 5.0432,10.51 6.7266,20.718 2.1051,12.765 2.0928,13.273 -0.3877,16 -1.409,1.549 -2.9449,4.9164 -3.4129,7.4831 -1.1665,6.3965 -1.5564,6.8361 -12.124,13.671 l -9.3118,6.0225 -0.05,13.153 c -0.03,7.9172 -0.7089,14.326 -1.7057,16.099 l -1.6561,2.9451 -6.3158,-2.7466 c -14.149,-6.1532 -43.38805,-8.3035 -62.73605,-4.6138 -8.3822,1.5986 -10.895,1.5936 -17.879,-0.0356 -7.9796,-1.8615 -8.2136,-1.835 -12.985,1.4718 -2.6726,1.8521 -6.117,3.3674 -7.6542,3.3674 -3.8419,0 -23.866,8.5187 -33.113,14.087 -4.1825,2.5186 -7.8467,4.5792 -8.1427,4.5792 -0.29597,0 -1.1233,-1.539 -1.8385,-3.4201 z"
          />
      <path class="region" data-region="Tulungagung"  data-info="Tulungagung" 
          
         id="tulungagung"
         d="m 486.67,757.94 c -8.6688,-4.7334 -19.858,-9.0606 -24.903,-9.6312 -5.497,-0.62165 -5.5757,-0.57093 -6,3.8659 l -0.42994,4.4958 -8,-0.46488 c -9.1685,-0.53277 -14.699,-3.37 -19.925,-10.222 -2.8865,-3.7844 -4.431,-4.646 -8.3288,-4.646 -2.8368,0 -5.4169,0.86397 -6.3368,2.122 -1.314,1.797 -2.405,1.8922 -7.1243,0.62137 -3.065,-0.82532 -6.204,-2.6802 -6.9756,-4.122 -1.0292,-1.923 -2.7977,-2.6214 -6.638,-2.6214 -4.9793,0 -5.3052,0.26053 -6.6712,5.3333 -1.7972,6.6744 -4.9007,6.9955 -6.0947,0.63053 -0.53074,-2.829 -2.0157,-5.2992 -3.7271,-6.1996 -4.3386,-2.2827 -4.6214,-3.3455 -3.8573,-14.493 0.65356,-9.5352 0.48432,-10.495 -2.1389,-12.133 -4.0051,-2.5012 -3.6413,-8.007 0.84664,-12.811 3.2585,-3.4882 4.9176,-4.0704 14.037,-4.9249 8.082,-0.75735 11.177,-1.6718 14.164,-4.1852 2.7992,-2.3554 5.4261,-3.2161 9.8153,-3.2161 7.8286,0 12.085,-3.304 11.916,-9.249 -0.14423,-5.0726 -2.5823,-8.0941 -11.203,-13.883 -3.4403,-2.3105 -10.844,-8.6697 -16.452,-14.131 -10.161,-9.8952 -10.194,-9.9506 -9.3536,-15.554 0.83639,-5.5774 -1.295,-13.176 -4.9217,-17.546 -2.589,-3.1196 -1.2218,-11.991 2.4072,-15.62 2.0757,-2.0757 3.245,-4.7968 3.2754,-7.6221 0.026,-2.4167 0.90472,-5.8939 1.9528,-7.7273 1.048,-1.8333 1.936,-6.0333 1.9732,-9.3333 0.0895,-7.9302 2.0373,-11.233 3.8355,-6.5033 1.4995,3.9439 8.8105,10.503 11.707,10.503 2.9083,0 15.754,12.596 23.997,23.53 3.9514,5.2414 8.2275,9.9654 9.5026,10.498 1.275,0.53243 5.9183,1.344 10.318,1.8036 l 8,0.83549 4.6871,14.507 c 4.1561,12.863 5.3267,15.058 10.333,19.37 4.814,4.1461 5.6463,5.6172 5.6463,9.9801 0,7.0291 6.604,12.897 20.581,18.287 8.7298,3.3666 12.134,4.0286 18.389,3.5762 6.9738,-0.50444 7.993,-0.22374 11.149,3.0706 4.1822,4.3653 3.4443,8.5977 -1.901,10.904 -1.9531,0.84275 -5.5876,3.2639 -8.0767,5.3802 -3.6849,3.1331 -5.2951,3.6843 -8.6667,2.9672 -12.09,-2.5718 -12.063,-2.576 -16.553,2.5378 -4.7237,5.38 -5.1258,8.4393 -2.8159,21.42 0.78297,4.4 1.9392,12.2 2.5694,17.333 0.63018,5.1333 1.5561,10.683 2.0575,12.333 1.0578,3.4806 -0.86306,3.777 -6.066,0.93611 z"
          />
      <path class="region" data-region="Pacitan"  data-info="Pacitan" 
          
         id="pacitan"
         d="m 117.94,743.37 c -2.1676,-2.222 -6.7911,-5.6753 -10.274,-7.6739 -5.6025,-3.2145 -6.3333,-4.1573 -6.3333,-8.1701 0,-5.4843 -2.5668,-7.9399 -7.108,-6.8002 -2.384,0.59836 -4.3905,2.944 -6.8923,8.0574 l -3.5292,7.2133 h -8.5079 c -5.931,0 -11.252,-1.0455 -17.569,-3.4519 -4.9834,-1.8985 -14.461,-5.4767 -21.061,-7.9515 -14.784,-5.5436 -16.667,-7.6125 -16.667,-18.317 0,-11.758 4.2703,-23.016 12.78,-33.696 3.9445,-4.95 7.5231,-10.106 7.9523,-11.459 1.0276,-3.2376 1.5536,-3.1433 8.6007,1.5413 5.0688,3.3696 7.3036,3.9895 14.4,3.9943 9.2575,0.007 13.771,-1.765 22.492,-8.827 3.0568,-2.4754 6.2701,-4.5006 7.1409,-4.5006 0.87072,0 3.3658,1.5 5.5446,3.3333 2.2763,1.9154 5.6432,3.3333 7.9149,3.3333 3.5838,0 4.3222,-0.82192 7.8977,-8.791 4.2789,-9.5368 4.9448,-16.763 2.416,-26.218 -1.3945,-5.2138 -1.2194,-6.2943 2,-12.342 1.9406,-3.6453 3.5283,-7.278 3.5283,-8.0727 0,-2.5391 5.9851,-7.1734 10.406,-8.0576 3.5813,-0.71627 4.7268,-0.28525 7.0327,2.6462 2.0643,2.6244 3.983,3.5124 7.6577,3.5442 2.6968,0.0233 6.0679,0.92333 7.4914,2 3.5519,2.6865 7.8786,2.4539 14.184,-0.76275 l 5.3323,-2.7204 3.8204,2.7204 c 2.1856,1.5563 5.9252,2.7204 8.7394,2.7204 3.7175,0 5.0814,0.621 5.5838,2.5424 0.36567,1.3983 3.0095,4.4266 5.8752,6.7295 4.9021,3.9394 5.2103,4.6146 5.2103,11.412 0,3.9739 0.99095,9.3033 2.2021,11.843 2.0472,4.2931 2.0472,5.1698 0,12.466 -2.6027,9.276 -2.7584,13.66 -0.64954,18.289 1.215,2.6668 1.1648,4.132 -0.23124,6.7405 -1.6938,3.165 -1.4192,3.6893 5.4475,10.4 3.9772,3.8866 9.3312,9.6338 11.898,12.771 3.1665,3.8709 6.1668,6.0361 9.3333,6.7353 3.9229,0.86628 4.2416,1.1819 2,1.9804 -5.7956,2.0644 -6.6673,3.1327 -6.7366,8.2563 -0.0385,2.8423 -0.55439,6.2224 -1.1465,7.5112 -1.3173,2.8675 -0.13409,9.6516 2.596,14.884 2.9822,5.7159 0.95466,6.9032 -8.2648,4.84 -5.2771,-1.181 -12.029,-1.4256 -21.826,-0.79063 -13.714,0.88884 -14.314,0.81207 -18.07,-2.3141 -8.7956,-7.3192 -13.006,-7.5707 -24.542,-1.4658 -3.2942,1.7432 -7.6051,3.1696 -9.5799,3.1696 -1.9748,0 -5.2796,0.69139 -7.344,1.5364 -2.0644,0.84502 -6.78,1.913 -10.479,2.3734 -6.2461,0.77732 -7.0065,0.549 -10.667,-3.2031 z"
          />
      <path class="region" data-region="Ponorogo"  data-info="Ponorogo" 
          
         id="ponorogo"
         d="m 226.8,697.18 c -2.6382,-3.0284 -7.6015,-8.3914 -11.03,-11.918 -4.6211,-4.7534 -6.0439,-7.1333 -5.5026,-9.2035 0.40159,-1.5357 -0.012,-5.4427 -0.91891,-8.6821 -1.3919,-4.9715 -1.3136,-6.8746 0.50258,-12.205 2.6304,-7.7199 2.6859,-14.74 0.15165,-19.173 -1.048,-1.8333 -1.9268,-6.5762 -1.9528,-10.54 -0.0433,-6.6106 -0.47552,-7.6138 -5.2268,-12.134 -2.8487,-2.71 -5.8698,-6.217 -6.7136,-7.7936 -1.1782,-2.2014 -2.7745,-2.8664 -6.8811,-2.8664 -3.8892,0 -6.2331,-0.88612 -8.597,-3.25 l -3.25,-3.25 3.2976,-7.0833 c 1.8137,-3.8958 3.3034,-8.4124 3.3106,-10.037 0.007,-1.6245 1.813,-5.0037 4.013,-7.5094 4.5853,-5.2224 4.718,-5.9504 2.0224,-11.096 -1.0877,-2.0761 -3.4211,-7.5325 -5.1854,-12.125 l -3.2078,-8.3507 3.5187,-3.7598 c 3.1613,-3.3779 4.9117,-3.9178 17.233,-5.316 7.543,-0.85589 20.404,-1.5562 28.581,-1.5562 12.84,0 15.241,0.35035 17.619,2.5705 1.5139,1.4138 8.8409,5.6138 16.282,9.3333 13.087,6.5416 13.902,6.7629 24.898,6.7629 9.8335,0 11.877,-0.40955 15.137,-3.0338 4.8568,-3.9094 17.384,-8.0076 25.451,-8.3264 3.4746,-0.13726 7.6257,-0.69644 9.2247,-1.2426 2.5447,-0.86923 3.1105,-0.3144 4.5379,4.45 2.2075,7.3681 4.991,9.5173 13.458,10.391 5.6281,0.58086 7.5643,0.27525 8.9675,-1.4155 2.7683,-3.3356 4.6999,-2.6762 13.42,4.5808 7.7465,6.4467 8.0081,6.8618 6.0692,9.63 -1.1144,1.5911 -2.0475,5.6094 -2.0735,8.9295 -0.026,3.3202 -0.90472,7.5367 -1.9528,9.37 -1.04808,1.8333 -1.9268,4.9343 -1.9528,6.891 -0.0659,4.9626 -1.3406,7.7757 -3.5232,7.7757 -1.2753,0 -1.8573,-1.6567 -1.8573,-5.2864 0,-6.3489 -2.9076,-8.5564 -8.9772,-6.8157 -6.9969,2.0067 -9.6129,4.057 -12.521,9.8134 -1.5621,3.0922 -5.9513,9.2221 -9.7537,13.622 -5.3318,6.1697 -7.3232,9.748 -8.7041,15.64 -1.6153,6.8922 -2.0814,7.5672 -4.7604,6.8948 -1.6612,-0.41692 -6.711,0.70069 -11.46,2.5363 -4.6697,1.8049 -9.5412,3.6337 -10.826,4.0641 -1.2844,0.43034 -3.3583,2.9276 -4.6086,5.5496 -1.573,3.2987 -3.9786,5.5214 -7.8093,7.216 -6.3112,2.7918 -11.311,8.7292 -14.68,17.432 -3.1827,8.2226 -4.2565,9.3305 -9.0635,9.3515 -10.045,0.0439 -12.142,2.8787 -14.074,19.021 l -0.7627,6.3729 -25.073,1.2748 z"
          />
      <path class="region"  data-region="Bondowoso" data-info="Bondowoso" 
          
         id="bondowoso"
         d="m 1341.4,675.29 c -2.5533,-1.8197 -5.7231,-5.415 -7.0439,-7.9895 -3.1261,-6.0935 -9.3949,-10.515 -31.087,-21.927 -17.171,-9.0332 -24.586,-11.234 -26.642,-7.9073 -0.5939,0.96081 -3.3824,1.1575 -8.0835,0.57012 -6.0521,-0.75616 -7.3137,-0.54043 -8.0493,1.3765 -0.4797,1.2502 -0.1944,3.3586 0.6341,4.6852 1.216,1.9471 1.0638,2.5472 -0.7896,3.1132 -1.2627,0.38562 -3.4959,0.50045 -4.9626,0.25514 -1.4666,-0.2453 -4.8141,0.39839 -7.4388,1.4304 -4.906,1.9291 -11.894,0.69058 -11.894,-2.1079 0,-2.3707 -4.8753,-2.8448 -9.478,-0.92168 -4.5091,1.884 -4.6867,1.8271 -12.47,-3.9958 -4.3429,-3.2488 -10.157,-6.5157 -12.92,-7.2597 -4.3168,-1.1624 -5.6407,-2.5198 -9.411,-9.6492 l -4.3876,-8.2965 -7.2298,-0.66667 c -3.9764,-0.36667 -7.427,-1.2686 -7.6681,-2.0044 -0.2411,-0.73575 4.1737,-5.2358 9.8106,-10 20.998,-17.747 26.272,-23.377 28.942,-30.896 1.3867,-3.9048 2.995,-11.739 3.574,-17.41 0.579,-5.6709 1.4723,-10.99 1.9852,-11.82 1.6795,-2.7173 13.354,-0.61732 18.534,3.334 2.6001,1.9832 7.9436,4.2804 11.874,5.1049 8.7603,1.8375 13.583,0.17669 17.57,-6.0505 2.0705,-3.2339 3.5135,-4.1482 6,-3.8018 10.164,1.416 22.42,1.5492 25.758,0.27993 3.1924,-1.2137 3.706,-2.0338 3.1373,-5.0092 -0.827,-4.326 0.085,-7.0602 2.3552,-7.0602 0.9303,0 5.1947,1.5493 9.4764,3.4429 8.8336,3.9066 14.548,3.5919 18.03,-0.99296 1.8803,-2.4764 3.5041,-2.8308 12.967,-2.8308 11.573,0 15.515,1.6234 14.177,5.8383 -0.4214,1.3278 0.7995,5.7238 2.7131,9.7688 2.3773,5.0252 3.8807,11.234 4.7464,19.603 0.7288,7.0435 2.9625,17.186 5.2569,23.868 2.1943,6.3908 3.9896,13.481 3.9896,15.757 0,5.4335 5.9056,18.671 8.8303,19.794 1.3184,0.5059 4.3267,-0.26984 7.0661,-1.8221 2.6236,-1.4867 6.4147,-3.1006 8.4246,-3.5864 3.9573,-0.95658 14.129,1.1055 20.012,4.0569 3.4386,1.7251 3.6666,2.3816 3.6666,10.56 0,4.7961 0.6359,9.9082 1.4131,11.36 1.1252,2.1025 0.6789,3.9178 -2.1909,8.9123 -1.9823,3.4496 -4.2682,7.5992 -5.0798,9.2212 -1.5704,3.1384 -2.9761,3.9444 -13.476,7.7266 -6.9299,2.4963 -7.9035,2.5609 -18.287,1.2127 -4.4609,-0.5792 -8.721,-0.0459 -14.667,1.8361 -4.6088,1.4588 -11.68,3.0023 -15.713,3.43 -6.3852,0.67712 -7.9336,0.34989 -11.976,-2.531 z"
          />
      <path class="region"  data-region="Probolinggo" data-info="Probolinggo" 
          
         id="probolinggo"
         d="m 1055.8,626.21 c -3.5059,-15.426 -6.7683,-21.191 -13.972,-24.691 -3.3806,-1.6424 -9.1988,-3.5651 -12.929,-4.2726 -4.6394,-0.87984 -8.1295,-2.5915 -11.044,-5.4166 -8.2564,-8.0025 -21.873,-6.284 -29.323,3.7006 -6.9028,9.2516 -17.031,18.152 -24.5,21.531 -4.0333,1.8244 -8.2702,4.1229 -9.4152,5.1078 -1.6362,1.4074 -2.9417,1.4662 -6.0982,0.2748 -5.1785,-1.9547 -9.4845,-0.81028 -15.782,4.1943 -2.7892,2.2166 -5.5438,4.0301 -6.1213,4.0301 -0.57755,0 -2.4451,-2.4969 -4.15,-5.5486 -6.7107,-12.012 -16.797,-14.668 -30.134,-7.936 -6.9372,3.5019 -8.7036,3.9099 -11.47,2.6494 -5.2735,-2.4028 -5.1778,-5.8219 0.26264,-9.3762 3.7538,-2.4525 5.2452,-4.6946 6.9543,-10.455 3.5241,-11.878 5.7054,-14.875 21.659,-29.754 12.465,-11.626 15.47,-15.177 16.806,-19.868 4.4676,-15.682 12.688,-39.925 14.247,-42.016 1.6407,-2.2006 2.0274,-2.0732 5.661,1.8637 2.8727,3.1125 5.5538,4.4736 10.178,5.1671 4.8285,0.72407 6.6148,1.68 7.7355,4.1397 1.7392,3.8172 7.082,5.4742 10.589,3.2841 4.2747,-2.6696 5.1088,-0.31392 1.6786,4.7408 -4.2472,6.2586 -4.1294,7.7852 1.0659,13.818 2.3833,2.7675 5.5333,7.0178 7,9.4452 6.8188,11.285 21.99996,14.328 21.99996,4.4094 0,-1.5969 0.9,-3.6503 2,-4.5633 1.3952,-1.1579 2,-4.2313 2,-10.163 0,-4.6769 0.3243,-8.5034 0.7206,-8.5034 0.3964,0 2.3464,1.1676 4.3334,2.5947 5.1419,3.6931 12.664,4.8215 14.82,2.2232 1.5292,-1.8425 2.0215,-1.8441 4.8121,-0.0156 6.4021,4.1948 10.598,2.923 19.622,-5.9466 7.1209,-6.9993 8.8876,-8.102 11.936,-7.4491 6.0809,1.3023 24.866,-5.9218 35.089,-13.494 5.1587,-3.8211 15.87,-5.2664 23.485,-3.169 3.2164,0.88588 9.103,1.981 13.081,2.4335 l 7.2334,0.82282 0.251,6.0261 c 0.1508,3.6238 2.1035,10.036 4.8982,16.085 2.9493,6.3834 5.2683,14.168 6.3469,21.307 0.9347,6.1868 2.7966,13.949 4.1375,17.249 4.0331,9.926 5.0402,15.916 5.4479,32.401 0.4227,17.092 -0.4262,19.327 -6.3221,16.641 -4.6149,-2.1027 -14.118,-0.0835 -23.808,5.059 -8.1282,4.3134 -9.4291,4.5995 -19.379,4.2615 -10.137,-0.34439 -10.834,-0.18064 -14.073,3.3043 -4.0417,4.3492 -7.327,4.6529 -10.647,0.98405 -1.6632,-1.8378 -3.9326,-2.6212 -7.2066,-2.4877 -2.6284,0.1072 -7.6001,-0.26323 -11.048,-0.82318 -5.6123,-0.9114 -6.7058,-0.65074 -10.436,2.4877 -2.2915,1.9282 -4.5718,3.5058 -5.0673,3.5058 -0.4955,0 -1.9023,-4.4062 -3.1262,-9.7916 z"
          />
      <path class="region"  data-region="Situbondo" data-info="Situbondo" 
          
         id="situbondo"
         d="m 1380.2,613.42 c -1.5569,-3.6193 -2.8308,-8.4981 -2.8308,-10.842 0,-2.3437 -1.7946,-9.4882 -3.9882,-15.877 -2.3739,-6.9138 -4.5304,-16.845 -5.3278,-24.534 -0.8264,-7.9692 -2.3633,-14.925 -4.0117,-18.156 -1.4697,-2.8809 -2.6723,-6.9573 -2.6723,-9.0587 0,-7.1871 -4.2362,-9.2445 -19.046,-9.2499 -11.861,-0.004 -13.256,0.26198 -15.356,2.932 -3.5491,4.512 -5.5537,4.5762 -15.191,0.48704 -4.9098,-2.0834 -9.8257,-3.788 -10.924,-3.788 -2.7717,0 -6.1487,5.2108 -6.1487,9.4874 0,4.2011 -1.9777,5.1811 -10.442,5.1743 -3.9154,-0.003 -7.8831,-1.0163 -10.696,-2.7312 l -4.4717,-2.7262 -7.1653,7.3979 c -3.9408,4.0688 -7.989,7.3979 -8.996,7.3979 -3.5168,0 -10.931,-3.1369 -15.415,-6.5219 -3.5437,-2.6752 -6.4352,-3.5202 -13.392,-3.9133 -11.176,-0.6315 -12.079,0.3448 -13.517,14.609 -1.7069,16.931 -4.462,22.967 -14.572,31.926 -4.7667,4.2238 -12.267,10.863 -16.667,14.753 l -8,7.0736 -0.7966,-13.963 c -0.5846,-10.246 -1.6849,-16.271 -4.1325,-22.63 -1.8347,-4.7667 -4.117,-13.729 -5.0717,-19.915 -1.0638,-6.8936 -3.4646,-14.99 -6.2009,-20.913 -2.4557,-5.3151 -4.4649,-11.13 -4.4649,-12.921 0,-4.2849 3.0626,-6.83 6.2481,-5.1924 1.3302,0.68384 5.9128,1.6359 10.184,2.1157 4.2707,0.47982 9.894,1.762 12.496,2.8492 6.7852,2.835 8.6499,2.5293 16.406,-2.6899 3.8141,-2.5667 7.258,-4.6667 7.6532,-4.6667 0.3952,0 3.585,1.7638 7.0885,3.9194 3.5034,2.1557 9.5698,4.5173 13.481,5.2479 9.5822,1.7901 15.593,-1.1431 25.634,-12.508 l 7.6495,-8.6591 7.5806,0.0227 c 5.9901,0.018 8.9792,0.85241 14.247,3.9773 3.6667,2.175 8.1592,3.9648 9.9834,3.9773 4.4755,0.0307 18.7,-9.9635 23.311,-16.379 2.0512,-2.8536 5.5991,-6.3022 7.8842,-7.6634 2.2851,-1.3612 7.4836,-5.8458 11.552,-9.9658 7.059,-7.1479 7.5644,-7.4148 11.04,-5.8314 2.7028,1.2314 5.7512,5.7401 11.82,17.482 4.4981,8.7026 10.01,17.613 12.248,19.802 5.888,5.7566 14.732,7.9112 32.472,7.9112 13.193,0 15.823,-0.38119 20.265,-2.9377 l 5.1043,-2.9376 4.8356,3.9376 c 2.6596,2.1657 7.8416,6.4787 11.516,9.5845 3.6737,3.1058 8.3197,6.0045 10.324,6.4417 2.0045,0.43719 5.2889,1.4166 7.2988,2.1765 2.0844,0.78806 7.2399,1.0197 12,0.53916 6.1987,-0.6257 9.2033,-0.33466 11.679,1.1313 1.8333,1.0855 5.9144,3.1862 9.0692,4.668 7.3297,3.4431 20.387,14.908 23.294,20.453 2.2841,4.3569 5.2749,23.931 4.1173,26.948 -0.3504,0.91319 -3.8581,3.8788 -7.7951,6.5902 -4.1978,2.8912 -7.6986,6.4814 -8.4657,8.6818 -1.2756,3.6591 -1.4513,3.718 -7.0972,2.3776 -15.607,-3.7052 -24.368,-7.934 -31.528,-15.219 -6.5515,-6.665 -7.4132,-7.1315 -11.69,-6.3292 -4.6197,0.86666 -9.9038,5.9037 -9.9038,9.4408 0,1.0196 -3.6,5.7236 -8,10.453 -5.2502,5.6436 -8,9.7196 -8,11.858 0,4.8562 -4.2496,11.65 -6.6667,10.658 -11.758,-4.8258 -22.815,-5.3001 -30.792,-1.3209 -2.3566,1.1757 -4.7188,2.1376 -5.2492,2.1376 -0.5304,0 -2.2381,-2.9612 -3.7952,-6.5805 z"
          />
      <path class="region"  data-region="Pasuruan" data-info="Pasuruan" 
          
         id="pasuruan"
         d="m 867.38,608.08 c -0.42704,-0.69096 -3.6125,-1.6229 -7.0787,-2.0709 -11.618,-1.5017 -28.739,-6.2485 -33.596,-9.3146 -5.1976,-3.2811 -9.4375,-8.4106 -15.156,-18.336 -2.0001,-3.4713 -5.1775,-7.9713 -7.0611,-10 -1.8836,-2.0287 -4.9102,-6.22 -6.7259,-9.314 -2.6799,-4.5668 -4.223,-5.7755 -8.1986,-6.4224 -12.325,-2.0056 -25.503,-5.3759 -32.063,-8.2003 -3.9412,-1.6968 -8.0383,-3.0851 -9.1046,-3.0851 -1.0663,0 -4.3148,-2.4 -7.219,-5.3333 -2.9042,-2.9333 -6.4571,-5.3333 -7.8954,-5.3333 -1.6632,0 -2.6151,-0.90522 -2.6151,-2.4868 0,-1.3678 -1.2,-4.0124 -2.6667,-5.877 -3.4003,-4.3228 -3.3512,-5.556 0.34007,-8.5394 1.6537,-1.3366 4.0938,-4.1202 5.4225,-6.1859 1.3287,-2.0657 3.4475,-4.7876 4.7086,-6.0486 5.9807,-5.9807 8.1956,-11.685 8.1956,-21.106 0,-9.1898 0.0349,-9.279 4.4571,-11.388 6.0477,-2.884 8.8762,-9.3075 8.8762,-20.158 0,-4.7959 -0.6,-9.0906 -1.3333,-9.5438 -2.9146,-1.8013 -1.0558,-3.3333 4.0443,-3.3333 6.451,0 17.321,5.1951 20.805,9.9438 2.1612,2.9452 3.782,3.4846 12.484,4.155 8.8622,0.68278 11.356,0.30382 21.917,-3.3309 6.5542,-2.2557 12.387,-4.1013 12.961,-4.1013 1.07,0 6.82,11.618 8.4136,17 0.58903,1.9892 1.9264,3 3.969,3 3.3606,0 12.74,3.553 12.74,4.826 0,0.43461 -1.4657,1.9432 -3.2572,3.3523 -4.7652,3.7483 -5.8037,12.515 -2.2968,19.389 3.0387,5.9563 4.8955,7.7228 9.2347,8.7854 3.0132,0.73789 10.986,-1.5221 10.986,-3.1142 0,-0.4638 1.8,-2.7268 4,-5.0289 2.2,-2.3021 4,-5.0911 4,-6.1978 0,-1.1067 0.6,-2.0121 1.3333,-2.0121 0.7333,0 1.3333,-0.86458 1.3333,-1.9213 0,-1.0567 0.59878,-2.2914 1.3306,-2.7437 1.3451,-0.8313 8.4526,2.5976 11.738,5.663 3.0847,2.8779 8.2944,3.4207 15.724,1.6385 4.5743,-1.0974 8.1041,-1.2835 9.725,-0.51286 3.5578,1.6915 13.482,10.922 13.482,12.54 0,0.73524 0.53003,1.3368 1.1778,1.3368 2.293,0 2.5886,5.5664 0.55333,10.417 -1.1346,2.704 -3.4279,9.4164 -5.0961,14.916 -1.6682,5.4996 -3.6567,11.8 -4.4187,14 -0.76199,2.2 -2.0856,6.4506 -2.9414,9.4458 -1.5779,5.5226 -3.6997,7.9315 -22.287,25.303 -9.1241,8.5272 -16.321,19.598 -16.321,25.106 0,4.1889 -3.1749,8.7283 -7.0494,10.079 -4.9795,1.7358 -8.5524,1.7894 -9.5696,0.14341 z"
          />
      <path class="region"  data-region="Nganjuk" data-info="Nganjuk" 
          
         id="nganjuk"
         d="m 384,550.53 c -3.3,-2.9472 -8.1,-6.3737 -10.667,-7.6146 -4.5166,-2.1835 -4.6795,-2.5253 -5.0647,-10.625 -0.38815,-8.1615 -0.24216,-8.5739 5.89,-16.637 3.4584,-4.5475 7.014,-10.68 7.9012,-13.628 0.88724,-2.9481 3.5222,-9.5592 5.8554,-14.691 3.8231,-8.4093 5.8975,-15.762 9.5664,-33.906 1.6579,-8.1988 4.259,-11.621 9.5928,-12.622 6.3035,-1.1825 8.697,-4.3643 9.6738,-12.859 0.79217,-6.8898 0.61706,-7.4857 -3.2891,-11.193 -2.9318,-2.7828 -4.1258,-5.1472 -4.1258,-8.1701 0,-2.3397 -0.9074,-5.007 -2.0164,-5.9274 -2.6579,-2.2059 -0.22853,-5.3084 3.4114,-4.3566 1.4466,0.3783 5.4746,-0.53337 8.951,-2.0259 6.755,-2.9002 23.511,-4.0801 32.448,-2.2849 5.7833,1.1618 12.607,-1.8789 14.745,-6.5699 2.4392,-5.3535 6.1174,-6.2559 37.128,-9.109 3.1799,-0.29256 3.3178,-0.009 2.9965,6.162 -0.25674,4.9298 0.62584,8.4858 3.71,14.948 2.2258,4.6637 4.6442,8.8486 5.3744,9.2999 0.73014,0.45124 5.1368,-0.13489 9.7926,-1.3025 9.36,-2.3474 11.757,-1.929 17.074,2.9802 3.207,2.9611 3.5312,4.0275 2.8796,9.4712 -0.5792,4.8388 -1.7414,7.0497 -5.5027,10.468 -2.6226,2.3833 -5.4875,4.3333 -6.3665,4.3333 -0.879,0 -3.179,1.2436 -5.1112,2.7634 -4.0047,3.1501 -4.5016,7.4575 -1.5245,13.215 1.7328,3.3508 1.7437,4.3287 0.0851,7.6004 -4.9084,9.6823 -8.7404,18.902 -8.7404,21.029 0,1.2877 -1.5,4.1239 -3.3333,6.3027 -1.8333,2.1788 -3.3583,5.5654 -3.3888,7.5258 -0.0305,1.9604 -1.128,6.5644 -2.439,10.231 l -2.3835,6.6667 h -7.2277 c -6.8425,0 -7.3343,0.22941 -9.2277,4.3045 -1.1,2.3674 -2.3,4.2985 -2.6667,4.2912 -0.36667,-0.007 -2.3857,-1.5249 -4.4867,-3.3724 -3.0479,-2.6802 -4.0012,-4.8953 -4.7162,-10.959 -1.1308,-9.5902 -1.735,-10.505 -8.217,-12.447 -5.0453,-1.5116 -5.5089,-1.398 -9.3708,2.2966 -2.2346,2.1378 -5.251,5.8066 -6.7033,8.1529 -1.4522,2.3463 -10.26,10.891 -19.573,18.988 -9.3131,8.0972 -20.762,18.178 -25.442,22.401 -9.9881,9.0131 -14.735,12.346 -17.491,12.279 -1.1,-0.0264 -4.7,-2.4594 -8,-5.4066 z"
          />
      <path class="region"  data-region="Madiun" data-info="Madiun" 
          
         id="madiun"
         d="m 355.33,545.73 c -4.3633,-1.1109 -5.7048,-2.8685 -7.482,-9.8028 -1.8759,-7.3195 -3.3601,-7.9444 -11.144,-4.6922 -2.4971,1.0434 -5.8399,1.5572 -7.4283,1.1418 -4.1025,-1.0728 -22.629,4.853 -26.685,8.5357 -2.8605,2.5967 -4.8586,3.0922 -12.47,3.0922 -8.2248,0 -10.317,-0.62579 -22.594,-6.7578 -7.4412,-3.7168 -13.997,-7.2138 -14.567,-7.7712 -0.57,-0.5574 -0.14231,-4.8664 0.9523,-9.5755 1.6555,-7.1221 2.8263,-9.2348 6.9615,-12.562 2.7342,-2.2 5.4641,-4.6 6.0665,-5.3333 2.6534,-3.2304 7.7243,-11.563 7.7243,-12.693 0,-0.68243 1.7987,-0.88105 3.997,-0.44139 2.7066,0.54134 6.3426,-0.2227 11.262,-2.3667 6.1359,-2.6739 7.5873,-4.0021 9.3363,-8.544 3.865,-10.037 2.4962,-15.289 -3.9849,-15.289 -2.4405,0 -5.9284,-0.56696 -7.751,-1.2599 l -3.3138,-1.2599 2.5604,-5.022 c 1.4082,-2.7621 2.5604,-6.0051 2.5604,-7.2067 0,-3.2272 7.338,-12.819 16.859,-22.038 4.9909,-4.8324 9.4688,-10.646 11.061,-14.359 2.1614,-5.0423 3.4628,-6.3975 6.7806,-7.0611 2.8798,-0.57596 6.275,-3.378 11.37,-9.3831 3.995,-4.709 7.2636,-9.2455 7.2636,-10.081 0,-0.83547 1.95,0.3142 4.3333,2.5548 11.471,10.784 30.43,21.783 37.548,21.783 2.3659,0 7.4238,-0.92719 11.24,-2.0604 3.816,-1.1332 7.5433,-1.6864 8.2829,-1.2294 0.74468,0.46024 0.98306,2.7588 0.53422,5.1514 -0.72534,3.8663 -0.30351,4.661 4.0142,7.5627 4.3916,2.9513 4.7536,3.6613 4.0318,7.909 -1.3796,8.1193 -1.8604,8.7472 -7.945,10.375 -3.5383,0.94636 -6.7205,2.8176 -7.8387,4.6093 -1.0353,1.6589 -3.4749,10.137 -5.4213,18.839 -1.9465,8.7027 -4.517,17.703 -5.7124,20 -1.1953,2.2973 -3.774,8.6882 -5.7304,14.202 -2.0728,5.8419 -6.1319,13.411 -9.7274,18.139 l -6.1703,8.1134 -0.38593,12.528 c -0.41461,13.458 -0.89501,14.16 -8.386,12.253 z"
          />
      <path class="region"  data-region="Jombang" data-info="Jombang" 
          
         id="jombang"
         d="m 642.57,527.24 c -5.1248,-5.1892 -8.1607,-7.2375 -10.727,-7.2375 -1.9689,0 -6.7894,-1.4941 -10.712,-3.3203 -7.597,-3.5366 -21.594,-4.6205 -26.406,-2.045 -4.665,2.4966 -18.212,-11.66 -31.2,-32.606 -2.0939,-3.3767 -5.9454,-7.7646 -8.5588,-9.7509 -13.29,-10.101 -25.634,-24.055 -25.634,-28.978 0,-0.83108 2.9746,-2.9043 6.6103,-4.6071 10.194,-4.7748 13,-8.5096 14.044,-18.693 l 0.88831,-8.6667 -4.8521,-4.6667 c -4.5218,-4.349 -5.4148,-4.6588 -13.117,-4.552 -4.5458,0.0631 -9.577,0.81684 -11.18,1.675 -2.7268,1.4593 -3.1742,1.0181 -6.914,-6.818 -4.549,-9.5315 -4.2757,-14.156 1.3179,-22.305 2.879,-4.1944 3.7376,-4.6231 8.4831,-4.2362 5.8757,0.47909 18.77,-2.7415 26.308,-6.5709 3.9607,-2.0121 8.3218,-2.5525 22.344,-2.7687 12.029,-0.18548 17.915,0.22326 19.012,1.3202 2.4394,2.4394 8.9199,1.8891 12.692,-1.0778 1.8646,-1.4667 4.4359,-2.6667 5.7141,-2.6667 1.2782,0 4.4211,-0.87622 6.9842,-1.9471 2.5631,-1.07088 4.9742,-1.6331 5.358,-1.2493 0.38382,0.38382 0.38989,2.994 0.0135,5.8004 -0.40692,3.0338 0.23771,7.8787 1.59,11.95 1.8001,5.4196 1.9716,7.7161 0.82255,11.012 -1.6528,4.7414 -1.8902,13.083 -0.43143,15.165 1.229,1.7542 10.8,4.6018 15.468,4.6018 4.4047,0 4.8155,4.1426 0.68288,6.8865 -2.4094,1.5998 -3.0247,3.9289 -4.1476,15.702 -1.2058,12.642 -1.0573,14.803 1.7372,25.284 1.8118,6.7958 2.9451,14.531 2.784,19.002 -0.30356,8.4285 1.7479,11.792 7.192,11.792 2.418,0 3.4145,0.90694 4.0287,3.6667 1.7038,7.6562 2.2979,9.1161 5.3896,13.244 1.9053,2.5441 3.1786,6.0749 3.1786,8.8139 0,2.7013 1.3924,6.6213 3.4055,9.5878 2.262,3.3332 3.2693,6.4113 3,9.1671 -0.39224,4.0135 -0.59265,4.1351 -6.1428,3.7274 -3.518,-0.2584 -6.9247,0.35658 -8.8069,1.5898 -2.9411,1.9271 -3.3685,1.7085 -10.217,-5.2263 z"
          />
      <path class="region"  data-region="Magetan" data-info="Magetan" 
          
         id="magetan"
         d="m 182.41,526.92 c -0.45458,-3.9162 -4.2672,-5.2252 -18.007,-6.1828 -5.7,-0.39724 -8.0191,-1.3915 -13.084,-5.6094 -8.7273,-7.2677 -11.75,-12.492 -9.9567,-17.209 0.97767,-2.5714 0.98407,-4.9116 0.0209,-7.6743 -1.8273,-5.2419 -1.756,-12.363 0.17754,-17.71 1.2559,-3.4732 2.5005,-4.4891 6.3333,-5.1693 2.6236,-0.4656 9.8702,-2.5876 16.104,-4.7155 6.2333,-2.1279 16.733,-5.0539 23.333,-6.502 18.862,-4.1387 26.392,-7.2885 28.238,-11.812 2.1825,-5.3465 3.7038,-6.327 15.095,-9.7286 5.5,-1.6424 12.368,-4.1728 15.261,-5.6231 4.2271,-2.1186 7.0502,-2.509 14.361,-1.9859 8.3026,0.59405 9.5065,1.07 13.745,5.4346 2.7111,2.7916 6.5048,5.1323 9.1101,5.6211 l 4.4644,0.83752 -1.746,4.8883 c -0.96027,2.6886 -1.7723,5.8648 -1.8045,7.0584 -0.0321,1.1935 -0.95852,2.917 -2.0585,3.8299 -1.09998,0.9129 -2,2.746 -2,4.0734 0,1.3274 -1.1421,2.776 -2.538,3.2191 -3.9055,1.2396 -6.7953,8.8306 -6.7953,17.85 0,6.3479 -0.69156,9.0917 -3.2368,12.842 -1.7803,2.6234 -3.4303,5.2045 -3.6667,5.7358 -0.2364,0.53131 -2.9813,2.9632 -6.0999,5.4042 -3.1713,2.4823 -6.0213,6.0034 -6.467,7.9901 -0.43835,1.9536 -1.36,5.802 -2.048,8.552 l -1.251,5 h -17.65 c -17.859,0 -37.268,1.7445 -43.834,3.94 -3.2533,1.0877 -3.6259,0.86834 -4,-2.3545 z"
          />
      <path class="region"  data-region="Mojokerto" data-info="Mojokerto" 
          
         id="mojokerto"
         d="m 677.67,528.98 c -5.0011,-1.2026 -5.6667,-1.8033 -5.6667,-5.114 0,-2.0632 -1.5,-5.9617 -3.3333,-8.6633 -1.9697,-2.9025 -3.3333,-6.8026 -3.3333,-9.5334 0,-2.9846 -1.1809,-6.0249 -3.3341,-8.5838 -1.8337,-2.1793 -3.706,-6.2883 -4.1606,-9.1312 -0.92914,-5.8105 -3.3926,-8.5096 -8.9809,-9.8402 -3.669,-0.87355 -3.7761,-1.1254 -2.9163,-6.8592 0.65699,-4.381 -0.0284,-9.519 -2.5965,-19.463 -3.4441,-13.337 -3.6003,-17.396 -1.2564,-32.647 0.76286,-4.9635 4.1324,-6.5978 15.723,-7.6259 10.18,-0.90299 18.189,-5.8675 18.189,-11.275 0,-3.4538 -0.54345,-3.8266 -7.7469,-5.3144 -11.043,-2.2809 -13.824,-2.0261 -18.92,1.7332 -5.1419,3.7936 -6.8689,3.9822 -15.448,1.6877 l -6.1528,-1.6456 0.913,-5.3544 c 0.50215,-2.9449 1.2256,-7.2842 1.6076,-9.6428 0.38206,-2.3586 -0.25001,-7.0608 -1.4046,-10.449 -2.609,-7.657 -1.6336,-17.929 1.7025,-17.929 1.2038,0 3.6723,-1.045 5.4854,-2.3222 3.0015,-2.1142 6.7704,-2.8338 27.277,-5.208 3.6558,-0.42324 8.0867,-1.9021 9.8465,-3.2864 4.1035,-3.2278 6.3893,-3.1837 8.1776,0.15775 1.0238,1.913 1.0119,4.096 -0.042,7.6667 -0.81038,2.7456 -1.2834,9.171 -1.0511,14.279 0.39996,8.7959 0.65141,9.4406 4.7592,12.203 l 4.3369,2.9164 -4.6703,5.5899 c -2.5686,3.0745 -4.6703,6.405 -4.6703,7.401 0,6.8181 11.002,14.945 22.667,16.744 23.811,3.6719 28.495,5.896 37.18,17.652 2.9096,3.9386 7.7343,9.0968 10.722,11.463 4.9158,3.8934 5.4315,4.8733 5.4315,10.322 0,8.1661 -3.0102,13.891 -8.9993,17.114 l -5.0007,2.6917 0.89536,18.816 -7.9901,10.567 c -11.253,14.882 -13.947,16.967 -25.572,19.784 -5.5,1.333 -11.2,3.4574 -12.667,4.7209 -2.9855,2.5721 -12.037,8.1494 -12.824,7.902 -0.28012,-0.0881 -3.0593,-0.77332 -6.176,-1.5228 z"
          />
      <path class="region"  data-region="Ngawi" data-info="Ngawi" 
          
         id="ngawi"
         d="M 134.79,457.99 C 125.598,449.392 124,445.353 124,430.724 c 0,-11.335 -0.26902,-12.563 -3.7545,-17.132 -5.7673,-7.5604 -8.1298,-16.623 -7.0833,-27.173 0.68333,-6.8888 1.6376,-9.7221 4.1945,-12.454 2.9635,-3.1666 3.3267,-4.7456 3.4701,-15.083 0.0881,-6.3501 0.603,-13.79 1.1443,-16.532 0.78217,-3.9629 0.54404,-5.1554 -1.1601,-5.8093 -2.92,-1.1205 -2.7056,-2.6827 1.5375,-11.204 l 3.6515,-7.3333 7.3663,-0.79232 c 4.0514,-0.43577 8.662,-1.4858 10.246,-2.3333 4.5111,-2.4143 5.2966,-2.0337 13.218,6.4031 7.7152,8.2176 14.233,11.581 19.755,10.196 1.938,-0.48643 3.7314,-0.0317 4.7591,1.2066 0.90704,1.0929 2.4189,1.9871 3.3597,1.9871 0.94083,0 4.2241,2.1 7.2962,4.6667 3.0721,2.5667 6.715,4.6667 8.0954,4.6667 1.3804,0 3.4953,1.5041 4.6998,3.3424 1.501,2.2908 3.2936,3.2825 5.6974,3.1521 1.9291,-0.10467 5.1964,0.49125 7.2609,1.3243 2.0644,0.83304 6.5644,1.5238 10,1.535 7.1804,0.0235 7.9604,0.43148 12.068,6.3129 2.3542,3.3707 3.9838,4.3333 7.3358,4.3333 2.3701,0 4.974,-0.6648 5.7866,-1.4774 0.92527,-0.92526 3.89,-1.1639 7.9333,-0.63865 19.483,2.5311 28.129,2.43 35.741,-0.41791 4.1152,-1.5397 7.7406,-2.7994 8.0564,-2.7994 0.31586,0 3.7332,3.0607 7.5941,6.8017 6.9642,6.7478 15.684,12.003 22.732,13.7 2.0167,0.48555 3.6667,1.7248 3.6667,2.7538 0,3.5518 -12.612,17.044 -17.378,18.59 -3.5724,1.159 -5.2609,2.9073 -7.629,7.8992 -1.7193,3.6243 -7.436,10.777 -13.152,16.456 -9.6292,9.5669 -10.334,10.004 -14.792,9.1675 -2.9699,-0.55716 -6.3249,-2.6733 -9.1792,-5.7898 -4.4495,-4.8581 -4.6273,-4.9166 -16.325,-5.3704 -9.8058,-0.38042 -12.721,-0.003 -17.059,2.2108 -2.8781,1.4683 -8.8149,3.6999 -13.193,4.959 -11.366,3.269 -15.114,5.4927 -17.444,10.349 -1.5769,3.2872 -3.6419,4.8232 -8.9497,6.6576 -9.1173,3.1509 -16.117,4.9595 -24.233,6.2609 -3.6667,0.588 -11.523,2.849 -17.46,5.0246 -18.503,6.7812 -19.473,6.7687 -27.083,-0.35 z"
          />
      <path class="region"  data-region="Sidoarjo" data-info="Sidoarjo" 
          
         id="sidoarjo"
         d="m 792.77,445.69 c -2.1423,-0.31762 -5.095,-2.1029 -6.5615,-3.9673 -4.6884,-5.9603 -14.858,-9.6946 -26.442,-9.7093 -9.8002,-0.012 -10.363,-0.18272 -13.333,-4.035 -1.7058,-2.2121 -4.5517,-5.8678 -6.3242,-8.1239 -4.7771,-6.0803 -12.834,-10.617 -21.283,-11.986 -16.391,-2.6544 -19.759,-3.5436 -26.494,-6.9939 -8.3689,-4.2874 -8.8447,-6.7354 -2.7768,-14.286 4.1662,-5.1843 4.3448,-5.2551 13.247,-5.2551 11.328,0 14.384,-1.1755 22.298,-8.5783 7.8401,-7.3335 11.435,-8.755 22.139,-8.755 5.9767,0 9.3174,-0.68509 11.58,-2.3747 1.7489,-1.3061 6.6901,-3.7885 10.981,-5.5164 7.4568,-3.0031 8.0025,-3.0454 12.379,-0.9586 6.1539,2.9346 11.408,2.7491 15.603,-0.55075 2.8304,-2.2264 3.9952,-2.4556 6.2762,-1.2348 1.6213,0.86768 7.1957,1.3171 13.237,1.0671 l 10.436,-0.43184 0.96344,6.6667 c 0.5299,3.6667 1.0967,14.167 1.2596,23.333 0.16286,9.1667 0.71582,17.971 1.2288,19.566 0.74187,2.3063 0.19081,3.261 -2.6935,4.6667 -1.9944,0.97194 -3.8636,2.4967 -4.1539,3.3884 -0.73134,2.2466 11.495,15.045 14.372,15.045 1.2888,0 4.3406,1.8658 6.7818,4.1462 l 4.4386,4.1462 -3.7842,3.255 c -3.4464,2.9645 -3.9881,3.0704 -6.0692,1.1871 -3.3598,-3.0406 -7.3501,-2.5846 -22.742,2.5988 -13.391,4.5097 -16.192,4.9305 -24.562,3.6896 z"
          />
      <path class="region"  data-region="Bojonegoro" data-info="Bojonegoro" 
          
         id="bojonegoro"
         d="m 375.28,401.54 c -8.9421,-4.7082 -22.86,-14.816 -28.479,-20.682 -2.4944,-2.6041 -6.3704,-5.1379 -8.6135,-5.6306 -8.3492,-1.8338 -15.062,-5.726 -22.489,-13.04 -8.6758,-8.543 -10.485,-8.9341 -21.781,-4.7078 -7.7807,2.9111 -12.263,2.933 -31.544,0.154 -10.024,-1.4449 -14.467,-5.3392 -13.424,-11.767 0.56425,-3.4771 0.26706,-4.5333 -1.2755,-4.5333 -2.7558,0 -5.5742,-3.4904 -3.7358,-4.6266 0.76895,-0.47523 1.3981,-3.48 1.3981,-6.6773 0,-4.7172 1.6915,-9.8614 5.0222,-15.274 0.19555,-0.31779 1.0656,0.13227 1.9333,1 0.86778,0.86777 4.8254,1.5778 8.7948,1.5778 6.4382,0 8.1001,-0.6435 15.4,-5.9631 17.439,-12.708 21.134,-15.874 24.205,-20.738 1.7471,-2.7676 3.657,-5.2421 4.2442,-5.4989 1.8126,-0.79286 8.401,-11.164 8.401,-13.224 0,-1.0709 1.3161,-5.2387 2.9247,-9.2617 1.6086,-4.023 3.0001,-10.315 3.0922,-13.981 0.0921,-3.6667 0.93371,-8.085 1.8701,-9.8185 1.7872,-3.3085 1.4288,-7.9308 -1.3105,-16.902 -1.6148,-5.2885 -1.0288,-12.786 1.2846,-16.435 1.8812,-2.9673 9.8199,0.47795 16.676,7.2372 3.3019,3.2552 6.6164,5.9185 7.3655,5.9185 2.2817,0 5.4306,7.558 5.4306,13.035 0,3.6772 0.88982,6.0031 3.0859,8.0662 2.7774,2.6093 4.5435,2.9007 17.667,2.9149 17.047,0.0185 26.983,2.2729 33.771,7.6623 2.6456,2.1006 8.1102,5.7522 12.144,8.1146 4.0333,2.3624 8.3681,5.0128 9.6328,5.8897 1.7354,1.2034 3.2737,1.2268 6.2712,0.0953 3.5645,-1.3454 4.1864,-1.1716 6.0646,1.6949 2.4566,3.7492 4.2682,3.9964 7.5466,1.0294 2.2322,-2.0201 2.4983,-1.931 3.9857,1.3333 1.9063,4.1838 5.8598,4.5586 9.7465,0.92386 2.7086,-2.5329 2.838,-2.5337 8.0859,-0.0452 8.5828,4.0696 10,3.5905 10,-3.3806 0,-5.6643 0.20624,-6 3.6863,-6 3.3825,0 3.9594,-0.79664 7,-9.6667 l 3.3137,-9.6667 6,0.41059 c 4.7563,0.32548 6.9519,-0.29635 10.592,-3 5.6645,-4.2068 6.741,-4.2563 6.741,-0.30967 0,3.826 5.167,8.8991 9.0639,8.8991 1.5906,0 7.4019,2.2316 12.914,4.959 9.4591,4.6805 10.022,5.2072 10.022,9.3762 0,6.4374 -3.106,12.847 -7.8693,16.238 -5.3764,3.8283 -8.1307,9.2574 -8.1307,16.027 0,5.268 -0.11215,5.3996 -4.604,5.3996 -4.1745,0 -4.7388,0.46645 -6.0485,5 -0.79448,2.75 -1.804,10.4 -2.2433,17 -0.4393,6.6 -1.3696,13.108 -2.0673,14.462 -0.6977,1.3542 -1.5244,9.4264 -1.8372,17.938 -0.68897,18.751 -1.5397,20.439 -10.581,20.993 -13.462,0.82442 -32.063,3.3256 -35.682,4.798 -2.0512,0.83462 -4.63,3.2588 -5.7305,5.387 -2.4915,4.818 -7.9274,7.1287 -12.195,5.1841 -4.1634,-1.897 -26.403,-0.3053 -32.344,2.3148 -2.5667,1.1319 -6.7667,1.9288 -9.3333,1.7708 -3.9531,-0.24328 -5.1221,0.3913 -7.6451,4.15 -2.1568,3.2132 -4.6448,4.8829 -9.0191,6.0529 -8.0413,2.1507 -9.5233,1.9651 -17.392,-2.1779 z"
          />
      <path class="region"  data-region="Gresik" data-info="Gresik" 
          
         id="gresik"
         d="m 690,374.22 c -4.9921,-2.7111 -5.3602,-3.3213 -5.7525,-9.5383 -0.23053,-3.653 0.28047,-9.1406 1.1356,-12.195 2.6378,-9.4215 -0.7651,-17.822 -7.2193,-17.822 -1.6385,0 -5.0122,1.5 -7.4971,3.3333 -2.9867,2.2036 -6.2677,3.3333 -9.68,3.3333 -2.8391,0 -6.3739,0.64862 -7.8552,1.4414 -3.8292,2.0493 -5.0679,0.005 -1.4648,-2.4164 2.7433,-1.8443 3,-3.0543 3,-14.141 v -12.124 l 8.1571,-7.5717 c 4.4864,-4.1644 9.7364,-8.3194 11.667,-9.2332 10.364,-4.9064 12.595,-6.2538 15.679,-9.4684 4.7486,-4.9502 3.9744,-10.503 -1.82,-13.053 -6.1636,-2.7131 -6.9662,-6.5181 -2.1865,-10.365 2.1106,-1.6989 5.6375,-4.7742 7.8375,-6.834 2.2,-2.0598 5.9729,-4.5372 8.3843,-5.5054 5.3777,-2.1592 6.4247,-4.018 7.6064,-13.504 0.895,-7.1842 0.78252,-7.5642 -3.2411,-10.95 -2.2926,-1.9291 -5.8979,-4.5291 -8.012,-5.7779 -3.648,-2.1549 -3.7396,-2.4294 -1.7996,-5.3902 1.6084,-2.4547 1.703,-3.5306 0.444,-5.0476 -2.3246,-2.801 -12.629,-4.0276 -17.362,-2.0668 -3.4042,1.41 -5.4192,1.1575 -14.731,-1.8459 -5.9328,-1.9136 -13.05,-3.4793 -15.816,-3.4793 -6.5473,0 -7.0624,-0.70636 -4.4739,-6.1346 1.6552,-3.4709 3.7196,-5.1113 8.833,-7.0188 5.7002,-2.1264 6.9398,-3.2442 8.5033,-7.668 1.0486,-2.9669 1.5022,-7.3214 1.0622,-10.196 -0.55025,-3.5943 10e-4,-6.5245 1.9442,-10.333 1.4917,-2.924 3.15,-5.3066 3.6851,-5.2945 1.0901,0.0245 8.8383,4.657 14.218,8.5004 4.3102,3.0794 12.05,4.6759 23.041,4.753 7.0072,0.0491 8.5109,-0.36139 9.7405,-2.659 1.7574,-3.2838 0.62169,-7.5727 -3.0748,-11.611 -2.4305,-2.6556 -2.5387,-3.3737 -0.95479,-6.3333 2.4772,-4.6286 3.4441,-4.2232 6.0213,2.5253 2.4459,6.4044 9.101,13.593 13.315,14.382 2.4316,0.45523 2.6288,1.3775 2.2373,10.46 -0.23618,5.4786 0.19084,11.59 0.94893,13.58 0.77775,2.0422 4.6019,5.7594 8.7762,8.531 9.2607,6.1487 12.775,11.71 13.616,21.55 0.63451,7.4205 0.53804,7.6964 -3.4628,9.9044 -3.853,2.1264 -4.1185,2.7644 -4.1628,10 -0.026,4.2508 -0.90472,9.2287 -1.9528,11.062 -3.9451,6.9012 -1.5774,12.795 6.8916,17.156 1.6474,0.84824 3.2818,3.3581 3.7986,5.8333 0.49883,2.3894 2.088,5.2775 3.5315,6.4179 2.2016,1.7394 2.3852,2.5988 1.1393,5.3333 -1.2704,2.7883 -2.3969,3.2598 -7.7878,3.2598 -4.6929,0 -7.1248,0.76616 -9.5226,3 -3.5551,3.312 -4.8186,3.6601 -6.0506,1.6667 -1.4656,-2.3714 -6.7909,-1.4159 -9.7676,1.7526 -1.6741,1.782 -2.8991,4.8118 -2.8991,7.1706 0,3.5308 1.0075,4.6943 7.4301,8.5807 6.864,4.1535 7.3704,4.7955 6.6474,8.4257 -0.43048,2.1613 -1.1555,7.1016 -1.6111,10.979 -0.99458,8.4622 0.64972,11.092 6.9358,11.092 3.7535,0 5.0269,0.91564 8.5658,6.1594 3.9441,5.8441 4.0408,6.2877 1.8878,8.6667 -1.802,1.9912 -4.1567,2.5073 -11.439,2.5073 -11.13,0 -16.972,2.2607 -22.7,8.7847 -2.3884,2.7202 -6.2826,5.7565 -8.6538,6.7473 -6.4654,2.7014 -17.462,2.0944 -23.73,-1.31 z"
          />
      <path class="region"  data-region="Lamongan" data-info="Lamongan" 
          
         id="lamongan"
         d="m 522,365.77 c -2.4438,-0.48823 -2.645,-1.4911 -2.4071,-11.998 0.14276,-6.3058 0.64253,-12.434 1.1106,-13.619 0.46806,-1.1846 1.389,-7.5538 2.0465,-14.154 2.0715,-20.794 2.9251,-23.333 7.8433,-23.333 4.64,0 7.0321,-2.7107 6.7063,-7.5995 -0.43283,-6.4951 -0.1044,-7.1751 6.5742,-13.612 6.0056,-5.7884 6.611,-6.9507 7.4034,-14.213 0.47464,-4.3499 1.1458,-9.2707 1.4915,-10.935 0.53949,-2.5975 10.262,-10.814 18.55,-15.676 2.7476,-1.6119 2.9143,-8.4424 0.89398,-36.631 -1.6099,-22.462 -3.0659,-28.152 -9.0825,-35.495 -4.7398,-5.7843 -4.7539,-5.8386 -1.5163,-5.8386 1.7974,0 6.2197,-1.4975 9.8273,-3.3278 7.962,-4.0394 8.4346,-4.0561 15.185,-0.53762 l 5.3744,2.8013 5.2795,-2.7518 c 2.9037,-1.5135 6.9537,-2.7344 9,-2.7131 2.0463,0.0213 8.178,-0.48402 13.626,-1.1229 5.7198,-0.6708 13.608,-0.65794 18.667,0.0304 5.9912,0.81524 11.007,0.69554 15.865,-0.3786 3.9069,-0.86392 7.4386,-1.2356 7.8483,-0.82591 0.40968,0.40968 -0.57944,3.8233 -2.198,7.5859 -2.1258,4.9417 -2.7118,8.2086 -2.1106,11.767 1.3142,7.7788 -0.72676,11.139 -8.3983,13.827 -5.6581,1.9824 -6.9601,3.0869 -8.2515,7 -0.84335,2.5554 -2.0868,4.6462 -2.7633,4.6462 -1.7882,0 -1.508,5.8553 0.37006,7.7333 0.88,0.88 3.8918,1.6 6.6929,1.6 2.8011,0 10.774,1.8938 17.717,4.2086 11.872,3.9578 12.923,4.0952 17.64,2.3063 7.9529,-3.0161 10.487,-2.0364 10.013,3.8715 -0.37226,4.6435 0.0349,5.2348 6.6365,9.6383 7.2489,4.8352 8.7112,7.764 7.0938,14.208 -0.56552,2.2532 -2.6946,4.1209 -6.7355,5.9084 -3.2497,1.4375 -6.3774,3.4506 -6.9503,4.4736 -0.57289,1.023 -3.5788,3.6977 -6.6798,5.9438 -3.101,2.2461 -6.019,5.601 -6.4844,7.4553 -1.2458,4.9636 1.7341,10.923 6.2485,12.497 2.1308,0.74277 3.8741,1.8771 3.8741,2.5208 0,2.598 -6.4508,7.1224 -17.51,12.281 -1.9303,0.90035 -7.1803,5.0443 -11.667,9.2087 l -8.1571,7.5717 v 12.134 c 0,11.37 -0.20342,12.267 -3.2322,14.252 -1.7777,1.1648 -3.6181,3.3338 -4.0898,4.82 -0.4717,1.4862 -1.9363,2.7022 -3.2546,2.7022 -1.3184,0 -3.9226,1.2 -5.7871,2.6667 -1.9768,1.555 -5.409,2.6667 -8.2329,2.6667 -2.6636,0 -7.195,1.2 -10.07,2.6667 -2.8749,1.4667 -6.601,2.68 -8.2802,2.6963 -1.6792,0.0163 -4.5175,1.1552 -6.3074,2.5308 -2.9666,2.2801 -3.5287,2.3214 -6.3594,0.46656 -2.1334,-1.3979 -5.0054,-1.8204 -9.177,-1.3502 -3.3395,0.3764 -7.8405,0.0168 -10.002,-0.79923 -2.971,-1.1214 -4.5701,-1.0842 -6.5507,0.15275 -1.4411,0.9 -5.9523,1.6364 -10.025,1.6364 -4.8803,0 -9.2672,0.95028 -12.868,2.7875 -5.1064,2.6051 -18.738,6.7703 -20.828,6.3643 -0.51422,-0.0999 -2.1349,-0.42132 -3.6016,-0.71434 z"
          />
      <path class="region"  data-region="Pamekasan" data-info="Pamekasan" 
          
         id="pamekasan"
         d="m 1122.7,310.69 c 0,-1.7489 -1.9121,-3.6453 -5.6667,-5.6203 -5.6131,-2.9525 -9.1181,-3.4522 -41.333,-5.8928 -13.382,-1.0138 -12.284,0.68852 -11.709,-18.17 0.2573,-8.432 -0.076,-10.473 -1.8213,-11.143 -1.6331,-0.62671 -2.1362,-2.7163 -2.1362,-8.8731 0,-7.1543 0.498,-8.664 4.4613,-13.524 2.4537,-3.0088 5.8164,-9.5621 7.4727,-14.563 2.1331,-6.4404 3.9,-9.497 6.0583,-10.48 1.6758,-0.76356 3.7369,-2.6721 4.5801,-4.2413 0.8433,-1.5691 2.3364,-4.2464 3.3182,-5.9496 1.2264,-2.1275 1.4508,-4.5782 0.7172,-7.8308 -0.6695,-2.9686 -0.5047,-5.9698 0.4419,-8.0473 1.8162,-3.9862 15.47,-18.172 18.674,-19.401 1.5306,-0.58738 2.2767,-2.3631 2.2767,-5.4189 0,-2.4999 0.7538,-5.1708 1.675,-5.9354 0.9213,-0.76459 10.071,-1.6472 20.333,-1.9615 10.767,-0.32969 22.753,-1.5272 28.339,-2.8314 12.498,-2.9176 14.337,-2.0225 13.831,6.7306 -0.2053,3.5526 -1.5295,8.4435 -2.9427,10.869 -1.4132,2.4253 -2.5694,5.6386 -2.5694,7.1409 0,1.5023 -1.5396,4.561 -3.4212,6.7972 -2.8426,3.3782 -3.3607,5.2077 -3.0629,10.817 0.3515,6.6238 0.2777,6.768 -3.9039,7.6232 -8.7894,1.7976 -11.468,8.8642 -4.612,12.165 2.8292,1.3619 3.5738,2.5578 3.2601,5.2362 -0.309,2.6391 0.965,4.7762 5.3148,8.9149 5.2695,5.014 5.6092,5.738 4.3018,9.1699 -0.7806,2.0494 -4.5701,8.2261 -8.4211,13.726 -10.811,15.44 -19.97,32.352 -18.75,34.617 1.6073,2.9828 -4.7133,14.307 -9.3134,16.685 -5.035,2.6037 -5.3926,2.5633 -5.3926,-0.60892 z"
          />
      <path class="region"  data-region="Sampang" data-info="Sampang" 
          
         id="sampang"
         d="m 936.11,301.86 c -4.7089,-1.0297 -8.8613,-2.1718 -9.2275,-2.538 -0.3662,-0.3662 0.63654,-2.0521 2.2283,-3.7465 3.1147,-3.3155 3.6931,-7.5913 1.5647,-11.568 -1.1564,-2.1608 -0.33234,-2.9534 6.3333,-6.0916 8.2002,-3.8605 9.6103,-5.183 9.6423,-9.0433 0.0107,-1.3535 1.163,-4.0654 2.5594,-6.0265 1.3964,-1.9611 2.9615,-6.5537 3.4779,-10.206 0.5164,-3.6521 1.7739,-7.9691 2.7944,-9.5933 2.1841,-3.4762 2.4029,-8.866 0.50382,-12.414 -1.1145,-2.0824 -0.61728,-3.0613 2.8338,-5.579 5.0029,-3.6499 9.1846,-12.644 9.1846,-19.755 0,-6.2212 -3.5583,-9.2984 -10.752,-9.2984 -4.5085,0 -4.9352,-0.36586 -6.4937,-5.5676 -1.5281,-5.1003 -1.4416,-5.7438 1.0308,-7.6667 1.4844,-1.1545 3.1179,-4.408 3.63,-7.23 0.51209,-2.822 2.5032,-6.722 4.4248,-8.6667 3.3361,-3.3763 4.1551,-3.5426 18.16,-3.689 8.0667,-0.0843 34.76698,-0.87648 59.33298,-1.7604 35.257,-1.2686 46.984,-1.2612 55.667,0.0348 l 11,1.6419 v 4.4804 c 0,3.4968 -0.7389,4.8171 -3.3661,6.0141 -1.8513,0.84354 -4.5308,3.4183 -5.9544,5.7217 -1.4236,2.3034 -4.049,4.9698 -5.8343,5.9252 -4.6613,2.4947 -8.042,10.761 -7.1428,17.465 0.8242,6.1446 -2.7836,13.346 -7.8964,15.762 -1.9297,0.91178 -3.8313,4.3103 -5.8435,10.444 -1.6406,5.0006 -5.0033,11.593 -7.4727,14.65 -4.3057,5.3298 -4.4898,6.0203 -4.4898,16.837 0,8.731 0.4838,11.681 2.1417,13.057 1.6734,1.3888 1.942,3.101 1.2284,7.8299 -1.2727,8.433 -1.2991,10.87 -0.1609,14.877 l 0.9917,3.4911 -19.767,-0.14603 c -16.09,-0.1188 -20.72,0.28254 -24.888,2.158 -3.6831,1.6572 -5.8108,1.9346 -7.5791,0.9883 -3.2964,-1.7642 -22.12598,-1.6811 -25.47698,0.1124 -2.078,1.1121 -3.4275,0.89088 -6.0994,-1 -1.887,-1.3355 -4.2871,-3.0281 -5.3336,-3.7614 -1.4227,-0.99699 -2.6494,-0.40837 -4.8631,2.3333 -2.7416,3.3957 -3.6466,3.6568 -12.244,3.5328 -5.1058,-0.0736 -13.136,-0.97637 -17.845,-2.0061 z"
          />
      <path class="region"
          
         d="m 1232.3,302.4 c -1.65,-0.81236 -3,-2.0258 -3,-2.6964 0,-0.68039 1.3262,-0.76488 3,-0.19113 1.65,0.56556 4.6931,0.92676 6.7624,0.80268 2.4284,-0.14563 3.5738,0.34893 3.2305,1.3949 -0.7062,2.1517 -6.247,2.5343 -9.9929,0.69001 z"
         id="p_sumenep_2"
          />
      <path class="region"  data-region="Bangkalan" data-info="Bangkalan" 
          
         id="bangkalan"
         d="m 905.33,294.57 c -4.7667,-0.57555 -10.767,-1.62 -13.333,-2.321 -2.566,-0.701 -9.4649,-2.5876 -15.329,-4.1924 -10.085,-2.7597 -17.137,-6.0636 -22.285,-10.44 -1.4719,-1.2515 -3.8361,-1.6797 -6.6667,-1.2075 -2.4123,0.40243 -10.754,0.0628 -18.538,-0.75475 -13.217,-1.3883 -14.738,-1.294 -23.028,1.4274 -12.993,4.2652 -18.97,3.8477 -25.33,-1.7695 l -5.1771,-4.5722 2.9956,-8.0101 c 3.7542,-10.039 2.968,-13.725 -3.6164,-16.957 -6.0396,-2.9644 -8.0101,-8.3148 -6.1765,-16.771 0.99364,-4.5824 1.7356,-5.5939 3.8576,-5.2591 14.997,2.3657 15.859,2.2142 22.376,-3.9332 3.3906,-3.198 9.2549,-8.5145 13.032,-11.815 3.7768,-3.3 10.737,-11.012 15.467,-17.138 6.7697,-8.768 8.5517,-12.031 8.3743,-15.333 -0.36516,-6.7981 -0.17729,-7.0992 4.0422,-6.48 2.8964,0.42511 4.6408,-0.17541 6.3333,-2.1804 2.039,-2.4154 4.793,-2.9553 21.667,-4.2482 10.632,-0.81465 22.264,-2.0374 25.849,-2.7172 8.88,-1.6841 43.393,-1.5627 53.446,0.18795 9.9805,1.738 12.424,3.0191 10.443,5.4744 -0.78482,0.97256 -1.8439,3.8683 -2.3535,6.435 -0.50961,2.5667 -2.4718,5.9633 -4.3604,7.5481 -3.3408,2.8033 -3.3866,3.0563 -1.6891,9.3333 2.763,10.217 3.507,11.119 9.1751,11.119 3.3738,0 5.8842,0.88892 7.4751,2.6468 2.2906,2.5311 2.2935,2.9136 0.0664,8.7451 -1.2809,3.354 -3.2088,6.813 -4.2843,7.6865 -5.7023,4.6317 -7.0957,6.5852 -7.0771,9.9216 0.0107,2.0167 0.58576,4.5609 1.2767,5.6538 0.83164,1.3154 0.67057,2.8929 -0.47651,4.6667 -0.95304,1.4738 -2.1313,5.6406 -2.6184,9.2596 -0.4871,3.619 -1.8857,8.1065 -3.1081,9.9721 -1.2224,1.8656 -2.581,5.1446 -3.0191,7.2866 -0.64785,3.1677 -2.3663,4.6661 -9.2065,8.0279 l -8.41,4.1333 0.6625,6 c 0.50152,4.542 0.0699,6.729 -1.7764,9 -2.6224,3.2258 -4.0258,3.3441 -18.678,1.575 z"
          />
      <path class="region"
          
         d="m 1279.7,295.24 c -2.8199,-2.8661 -0.7015,-5.8335 6,-8.4048 l 7,-2.6858 3,3.3337 c 1.65,1.8335 3,4.0502 3,4.926 0,0.8758 -1.35,1.6951 -3,1.8206 -1.65,0.1256 -5.7,0.63296 -9,1.1275 -3.3,0.49454 -6.45,0.44181 -7,-0.1172 z"
         id="p_sumenep_3"
          />
      <path class="region"
          
         d="m 1184.6,287.91 c -0.4833,-0.78212 -0.5587,-1.7422 -0.1674,-2.1335 0.9551,-0.95508 3.5556,0.72778 3.5556,2.3009 0,1.704 -2.3019,1.5902 -3.3882,-0.1674 z"
         id="p_sumenep_1"
          />
      <path class="region"  data-region="Tuban" data-info="Tuban" 
          
         id="tuban"
         d="m 453.55,263.85 c -1.4681,-2.3508 -2.6046,-2.6851 -6.8317,-2.0091 -3.7275,0.59604 -5.5307,0.25647 -6.8075,-1.2819 -1.2269,-1.4784 -2.9953,-1.8567 -6.0235,-1.2886 -3.418,0.64123 -6.0021,-0.19873 -12.752,-4.1451 -4.656,-2.7221 -10.814,-6.6441 -13.684,-8.7154 -7.9464,-5.7352 -16.619,-7.7399 -33.484,-7.7399 -17.021,0 -19.298,-1.161 -19.298,-9.8379 0,-6.3925 -3.0828,-12.281 -7.6892,-14.687 -2.0043,-1.0469 -5.3822,-3.7319 -7.5066,-5.9666 -2.1244,-2.2347 -11.313,-7.7288 -20.42,-12.209 l -16.557,-8.1459 0.85239,-4.2433 c 1.5539,-7.7357 1.936,-8.2888 7.5586,-10.942 4.9156,-2.3195 5.7922,-3.4324 7.3272,-9.3014 1.0084,-3.8556 1.4344,-9.7588 1.0105,-14 -1.0241,-10.245 0.92568,-12.643 9.8954,-12.166 5.8062,0.30817 7.2933,-0.14398 10.273,-3.1236 3.1818,-3.1818 3.4451,-4.2599 3.0363,-12.43 l -0.44764,-8.9463 4.316,-0.41652 c 2.4511,-0.23654 5.1276,-1.5752 6.1942,-3.0981 1.877,-2.6797 1.8821,-2.6796 7.5171,0.19518 3.1014,1.5822 6.8238,2.5668 8.2721,2.1881 5.1403,-1.3442 19.048,2.0838 27.701,6.8279 7.9649,4.3668 9.5844,4.7572 20,4.8208 12.873,0.0785 25.743,-3.4875 36.117,-10.007 6.6193,-4.1599 15.075,-5.1388 18.808,-2.1774 1.1557,0.91667 5.6204,8.7545 9.9215,17.417 9.2799,18.691 22.153,33.582 30.025,34.732 19.767,2.8894 27.044,3.4716 33.663,2.6937 7.5272,-0.88468 7.6917,-0.83028 12.918,4.2736 7.0554,6.8894 9.2995,14.517 10.754,36.55 1.9876,30.118 2.1255,28.144 -2.1816,31.244 -2.1053,1.5156 -6.9541,5.2571 -10.775,8.3144 l -6.9474,5.5587 -8.899,-4.5587 c -4.8944,-2.5073 -10.27,-4.5587 -11.945,-4.5587 -3.7029,0 -7.0563,-3.4974 -7.6708,-8 -0.64133,-4.6994 -6.7786,-5.2587 -12.316,-1.1224 -3.0162,2.2531 -5.9317,3.0962 -10.745,3.1073 -7.3124,0.0168 -7.7693,0.50312 -12.158,12.941 -1.7918,5.0783 -2.8717,6.3364 -5.7223,6.6667 -3.0094,0.34869 -3.5731,1.1248 -3.9275,5.4071 -0.2276,2.75 -0.60902,5 -0.84759,5 -0.23857,0 -2.1524,-0.8963 -4.2528,-1.9918 -4.8123,-2.5098 -7.2972,-2.5217 -10.564,-0.0507 -3.3933,2.5666 -3.6404,2.5329 -5.7078,-0.77756 z"
          />
      <path class="region"  data-region="Sumenep" data-info="Sumenep" 
          
         id="sumenep"
         d="m 1252.7,261.77 c -2.2,-0.27095 -6.7,-1.1785 -10,-2.0168 -3.3,-0.8383 -8.7,-1.6682 -12,-1.8443 -3.3,-0.1761 -13.972,-1.5515 -23.714,-3.0566 -18.282,-2.8242 -20.434,-2.723 -24.952,1.1734 -2.4303,2.0957 -19.333,4.7654 -19.333,3.0536 0,-0.36478 1.1909,-2.1773 2.6466,-4.0279 3.5673,-4.5351 5.5796,-12.142 3.9952,-15.102 -0.6866,-1.2829 -3.0619,-3.8585 -5.2784,-5.7236 -2.7842,-2.3427 -4.0301,-4.5904 -4.0301,-7.2705 0,-3.8043 -2.6984,-7.2895 -6.6667,-8.6106 -1.9381,-0.64526 -0.4684,-1.4822 9.1215,-5.1941 2.8652,-1.109 3.0489,-1.7355 2.2379,-7.6324 -0.7784,-5.659 -0.4752,-6.9095 2.5452,-10.499 1.8858,-2.2412 3.4271,-5.1882 3.4251,-6.5491 0,-1.3608 1.1805,-4.8742 2.6279,-7.8075 1.4474,-2.9333 2.9968,-9.3833 3.4432,-14.333 0.7746,-8.5912 0.9732,-9.0095 4.372,-9.2096 9.7207,-0.57222 26.492,0.73472 30.404,2.3693 6.8784,2.874 24.451,2.2389 42.49,-1.5356 23.782,-4.9762 41.268,-5.6767 54.996,-2.2033 12.373,3.1306 48.719,19.663 57.283,26.056 3.1884,2.38 6.5,6.3613 7.6666,9.2168 2.6596,6.5097 2.7262,6.3064 -2.0628,6.3064 -2.2641,0 -7.9402,2.1383 -12.613,4.7517 -6.6511,3.7195 -10.753,4.9922 -18.883,5.8589 -11.616,1.2382 -18.725,3.8567 -25.912,9.5444 -5.7996,4.5897 -5.6028,4.5695 -10.347,1.0618 -4.7713,-3.5276 -9.972,-2.9785 -10.553,1.1144 -0.3125,2.2 0.486,3.3445 3,4.3003 1.8842,0.71636 3.4258,1.9815 3.4258,2.8115 0,0.91417 -0.9197,1.1303 -2.3333,0.5484 -5.3845,-2.2167 -7.1205,-2.1344 -11.452,0.54249 -5.94,3.6711 -15.548,14.131 -15.548,16.927 0,1.2029 1.8,4.2372 4,6.7429 4.4023,5.014 5.1457,9.0713 1.8909,10.32 -2.1785,0.83598 -16.843,0.78511 -23.891,-0.0828 z"
          />
      <path class="region"
          
         d="m 1327.1,250.07 c -15.566,-2.1076 -24.471,-6.7612 -24.471,-12.789 0,-4.725 0.8256,-4.8856 4.993,-0.97056 2.7791,2.6108 5.0433,3.0624 18.576,3.7046 15.12,0.71759 15.471,0.80613 18.581,4.6934 6.2721,7.8392 4.5284,8.368 -17.679,5.361 z"
         id="p_sumenep_4"
          />
      <path class="region"
          
         d="m 1398.1,203.51 c -0.964,-5.1383 0.1731,-9.1888 2.376,-8.4642 1.8615,0.61222 2.6563,5.4959 1.5875,9.7542 -1.1424,4.552 -2.9798,3.9541 -3.9635,-1.29 z"
         id="p_sumenep_5"
          />
    </g>
    <g
       id="kota" >
         <path class="region"  data-region="Kota Kediri" data-info="Kota Kediri" 
          
         id="kota_kediri"
         d="m 497.62,576.53 c -9.5497,-2.0995 -16.216,-5.168 -16.424,-7.5596 -0.078,-0.89784 -0.22795,-2.7867 -0.33333,-4.1975 -0.11334,-1.5176 -1.5528,-2.9328 -3.5249,-3.4656 -1.8333,-0.49527 -5.8833,-2.2032 -9,-3.7954 -5.3244,-2.72 -5.6667,-3.2373 -5.6667,-8.5646 0,-5.1754 0.43046,-5.8996 4.9377,-8.3062 2.7158,-1.4501 6.6014,-4.0278 8.6347,-5.7282 5.9138,-4.9455 10.192,-3.5856 16.018,5.0916 2.7082,4.0333 5.1082,9.0728 5.3333,11.199 0.43123,4.0726 0.55376,4.1739 11.076,9.1643 7.3485,3.4852 8.699,6.0764 5.0666,9.7215 -1.32,1.3246 -2.3999,3.6474 -2.3999,5.1618 0,3.4508 -2.6957,3.7021 -13.718,1.2789 z"
          />
      <path class="region"  data-region="Kota Blitar" data-info="Kota Blitar" 
          
         id="kota_blitar"
         d="m 552.58,683.27 c 1.2231,-1.8667 3.583,-4.0133 5.2442,-4.7702 2.0505,-0.9343 3.7403,-3.7144 5.2628,-8.6588 3.6785,-11.946 2.3678,-19.184 -3.4711,-19.17 -6.4432,0.0163 -13.087,2.8283 -14.618,6.1868 -1.2542,2.7525 -2.205,3.2319 -5.2164,2.6296 -8.0813,-1.6163 -10.357,7.2288 -3.7858,14.713 2.2,2.5057 4,5.2376 4,6.071 0,2.6606 4.312,6.3919 7.3866,6.3919 1.7144,0 3.9149,-1.437 5.1972,-3.3941 z"
          />
      <path class="region"   data-region="Kota Malang" data-info="Kota Malang" 
          
         id="kota_malang"
         d="m 760.33,642.33 c 2.1826,-1.677 7.4207,-14.574 8.6359,-21.263 0.417,-2.2953 -0.29903,-4.9481 -1.9794,-7.3333 -1.448,-2.0554 -3.0644,-5.1266 -3.592,-6.8248 -0.5276,-1.6982 -2.7684,-5.1482 -4.9797,-7.6667 -3.6691,-4.1789 -4.6642,-4.579 -11.387,-4.579 -6.5466,0 -7.9422,0.51966 -12.532,4.6667 -2.841,2.5667 -6.0637,4.6667 -7.1616,4.6667 -1.236,0 -1.9962,1.2591 -1.9962,3.3062 0,2.5215 1.2812,3.9599 5.3983,6.0602 6.4894,3.3107 7.4573,5.3491 5.166,10.881 -1.6174,3.9048 -1.5146,4.3473 1.4656,6.3094 1.7628,1.1606 4.1272,3.265 5.2542,4.6766 7.0916,8.8819 12.544,11.068 17.709,7.1001 z"
          />
    

      <path class="region" data-region="Kota Batu" data-info="Kota Batu" 
          
         id="kota_batu"
         d="m 687.27,590.36 c 0.52257,-5.3032 1.8001,-11.676 2.8389,-14.163 2.2751,-5.445 2.6082,-32.796 0.46802,-38.425 -1.2375,-3.2548 -1.0224,-4.0329 1.6667,-6.0296 1.6981,-1.2609 4.6284,-3.4736 6.5118,-4.9171 1.8834,-1.4435 7.2069,-3.6048 11.83,-4.8028 8.2474,-2.1371 8.463,-2.1245 11.44,0.67265 1.669,1.568 3.3342,4.4181 3.7004,6.3336 0.65654,3.4345 -0.15668,5.263 -6.8392,15.378 -3.2327,4.893 -3.2918,5.365 -1.6851,13.448 0.91586,4.6076 1.2665,10.503 0.77918,13.1 -0.99011,5.2778 2.1311,13.047 5.2416,13.047 1.8768,0 3.4418,2.7778 3.4418,6.109 0,1.3312 -1.652,1.891 -5.5807,1.891 -3.8548,0 -6.5133,0.87611 -8.5961,2.8328 -3.2588,3.0614 -11.039,5.0168 -20.329,5.1091 l -5.8389,0.058 0.95012,-9.6422 z"
          />

      <path class="region" data-region="Kota Probolinggo" data-info="Kota Probolinggo" 
          
         id="kota_probolinggo"
         d="m 994.92,554.63 c -2.4262,-1.4792 -5.4262,-4.5656 -6.6667,-6.8586 -1.2404,-2.293 -3.9054,-6.1097 -5.922,-8.4815 -2.0167,-2.3718 -3.6667,-4.9371 -3.6667,-5.7007 0,-2.6154 7.2068,-9.9547 11.562,-11.774 11.574,-4.836 18.972,-0.4321 16.648,9.9109 -0.6669,2.9679 -0.9104,6.9765 -0.5411,8.908 0.3692,1.9315 -0.2668,5.4282 -1.4134,7.7705 -1.1466,2.3423 -2.4042,5.3086 -2.7946,6.592 -0.9041,2.9721 -1.8045,2.9263 -7.2048,-0.36615 z"
          />
      <path class="region" data-region="Kota Pasuruan" data-info="Kota Pasuruan" 
          
         id="kota_pasuruan"
         d="m 857.66,493 c -6.0367,-7.5651 -6.2876,-14.413 -0.70204,-19.165 3.3082,-2.8151 3.3689,-2.8173 10.089,-0.36089 3.7186,1.3592 7.3131,3.0232 7.9877,3.6979 1.9142,1.9142 -0.0816,6.2939 -5.5315,12.138 -5.0372,5.4019 -9.3942,6.7594 -11.843,3.6901 z"
          />
      <path class="region" data-region="Kota Madiun" data-info="Kota Madiun" 
          
         id="kota_madiun"
         d="m 277.67,483.96 c -2.3318,-0.93728 -3,-2.2744 -3,-6.0032 0,-4.909 1.9181,-9.8312 4.5329,-11.633 1.6868,-1.1621 15.6,0.15719 17.202,1.6311 0.58763,0.54072 0.32919,3.3223 -0.57433,6.1814 -1.3345,4.2227 -2.8099,5.7612 -7.862,8.1982 -3.4206,1.65 -6.4622,2.962 -6.759,2.9155 -0.29685,-0.0465 -1.8897,-0.62715 -3.5397,-1.2904 z"
          />
      <path class="region" data-region="Kota Mojokerto" data-info="Kota Mojokerto" 
          
         id="kota_mojokerto"
         d="m 648.89,407.11 c -1.8421,-1.8421 -0.72528,-3.8768 3.8313,-6.9801 4.5124,-3.0732 5.0026,-3.1302 12.157,-1.4138 7.4389,1.7846 7.4489,1.7938 4.5156,4.1691 -4.8462,3.9242 -18.078,6.6506 -20.504,4.2248 z"
          />
      <path class="region" data-region="Kota Surabaya" data-info="Kota Surabaya" 
          
         id="kota_surabaya"
         d="m 758.61,346.32 c -4.0987,-6.0636 -5.4182,-7.0734 -10,-7.652 -5.9396,-0.7502 -5.8125,-0.23292 -3.9689,-16.149 l 1.0212,-8.816 -7.4608,-4.5173 c -4.1034,-2.4845 -7.4778,-5.1938 -7.4986,-6.0207 -0.0731,-2.9045 3.4534,-4.4115 8.4324,-3.6035 3.8788,0.62945 5.6146,0.21497 7.9157,-1.8902 6.1811,-5.6547 9.3357,-4.8588 16.667,4.2048 4.0923,5.0596 18.486,1.0981 23.431,-6.4487 2.6241,-4.0049 9.0914,-5.5348 14.292,-3.3808 4.7526,1.9686 10.757,10.517 13.78,19.619 1.7422,5.2454 3.7737,7.9303 9.3928,12.414 3.9434,3.1466 7.872,7.2624 8.7303,9.1462 1.4068,3.0877 1.163,3.7569 -2.4756,6.7946 -2.2199,1.8532 -4.6782,5.0581 -5.4628,7.1219 -1.3962,3.6722 -1.6045,3.7382 -9.7499,3.09 -4.5778,-0.36431 -10.217,-1.0751 -12.531,-1.5796 -3.2512,-0.70869 -5.1411,-0.22698 -8.3144,2.1192 l -4.1068,3.0363 -13.008,-6.0924 -6.3512,2.8094 c -3.4932,1.5452 -6.725,2.8029 -7.1818,2.7948 -0.45677,-0.008 -2.9553,-3.1581 -5.5522,-7 z"
          />
    </g>
  </g>
</svg>
